%TF.GenerationSoftware,KiCad,Pcbnew,9.0.5*%
%TF.CreationDate,2026-05-30T11:00:58+05:30*%
%TF.ProjectId,full_Adder_csmss,66756c6c-5f41-4646-9465-725f63736d73,rev?*%
%TF.SameCoordinates,Original*%
%TF.FileFunction,Legend,Bot*%
%TF.FilePolarity,Positive*%
%FSLAX46Y46*%
G04 Gerber Fmt 4.6, Leading zero omitted, Abs format (unit mm)*
G04 Created by KiCad (PCBNEW 9.0.5) date 2026-05-30 11:00:58*
%MOMM*%
%LPD*%
G01*
G04 APERTURE LIST*
%ADD10C,0.100000*%
%ADD11C,0.150000*%
%ADD12C,0.120000*%
G04 APERTURE END LIST*
D10*
X165003333Y-52117419D02*
X165003333Y-52831704D01*
X165003333Y-52831704D02*
X165050952Y-52974561D01*
X165050952Y-52974561D02*
X165146190Y-53069800D01*
X165146190Y-53069800D02*
X165289047Y-53117419D01*
X165289047Y-53117419D02*
X165384285Y-53117419D01*
X164098571Y-52117419D02*
X164289047Y-52117419D01*
X164289047Y-52117419D02*
X164384285Y-52165038D01*
X164384285Y-52165038D02*
X164431904Y-52212657D01*
X164431904Y-52212657D02*
X164527142Y-52355514D01*
X164527142Y-52355514D02*
X164574761Y-52545990D01*
X164574761Y-52545990D02*
X164574761Y-52926942D01*
X164574761Y-52926942D02*
X164527142Y-53022180D01*
X164527142Y-53022180D02*
X164479523Y-53069800D01*
X164479523Y-53069800D02*
X164384285Y-53117419D01*
X164384285Y-53117419D02*
X164193809Y-53117419D01*
X164193809Y-53117419D02*
X164098571Y-53069800D01*
X164098571Y-53069800D02*
X164050952Y-53022180D01*
X164050952Y-53022180D02*
X164003333Y-52926942D01*
X164003333Y-52926942D02*
X164003333Y-52688847D01*
X164003333Y-52688847D02*
X164050952Y-52593609D01*
X164050952Y-52593609D02*
X164098571Y-52545990D01*
X164098571Y-52545990D02*
X164193809Y-52498371D01*
X164193809Y-52498371D02*
X164384285Y-52498371D01*
X164384285Y-52498371D02*
X164479523Y-52545990D01*
X164479523Y-52545990D02*
X164527142Y-52593609D01*
X164527142Y-52593609D02*
X164574761Y-52688847D01*
X183043333Y-120287419D02*
X183043333Y-121001704D01*
X183043333Y-121001704D02*
X183090952Y-121144561D01*
X183090952Y-121144561D02*
X183186190Y-121239800D01*
X183186190Y-121239800D02*
X183329047Y-121287419D01*
X183329047Y-121287419D02*
X183424285Y-121287419D01*
X182138571Y-120620752D02*
X182138571Y-121287419D01*
X182376666Y-120239800D02*
X182614761Y-120954085D01*
X182614761Y-120954085D02*
X181995714Y-120954085D01*
D11*
X173916666Y-55609580D02*
X173964285Y-55657200D01*
X173964285Y-55657200D02*
X174107142Y-55704819D01*
X174107142Y-55704819D02*
X174202380Y-55704819D01*
X174202380Y-55704819D02*
X174345237Y-55657200D01*
X174345237Y-55657200D02*
X174440475Y-55561961D01*
X174440475Y-55561961D02*
X174488094Y-55466723D01*
X174488094Y-55466723D02*
X174535713Y-55276247D01*
X174535713Y-55276247D02*
X174535713Y-55133390D01*
X174535713Y-55133390D02*
X174488094Y-54942914D01*
X174488094Y-54942914D02*
X174440475Y-54847676D01*
X174440475Y-54847676D02*
X174345237Y-54752438D01*
X174345237Y-54752438D02*
X174202380Y-54704819D01*
X174202380Y-54704819D02*
X174107142Y-54704819D01*
X174107142Y-54704819D02*
X173964285Y-54752438D01*
X173964285Y-54752438D02*
X173916666Y-54800057D01*
X172964285Y-55704819D02*
X173535713Y-55704819D01*
X173249999Y-55704819D02*
X173249999Y-54704819D01*
X173249999Y-54704819D02*
X173345237Y-54847676D01*
X173345237Y-54847676D02*
X173440475Y-54942914D01*
X173440475Y-54942914D02*
X173535713Y-54990533D01*
D12*
%TO.C,U3*%
X204850000Y-108675000D02*
X222750000Y-108675000D01*
X204850000Y-113975000D02*
X204850000Y-108675000D01*
X222750000Y-108675000D02*
X222750000Y-110325000D01*
X222750000Y-112325000D02*
X222750000Y-113975000D01*
X222750000Y-113975000D02*
X204850000Y-113975000D01*
X222810000Y-116465000D02*
X204790000Y-116465000D01*
X204790000Y-106185000D01*
X222810000Y-106185000D01*
X222810000Y-116465000D01*
X222750000Y-112325000D02*
G75*
G02*
X222750000Y-110325000I0J1000000D01*
G01*
%TO.C,U2*%
X200840000Y-69410000D02*
X218740000Y-69410000D01*
X200840000Y-74710000D02*
X200840000Y-69410000D01*
X218740000Y-69410000D02*
X218740000Y-71060000D01*
X218740000Y-73060000D02*
X218740000Y-74710000D01*
X218740000Y-74710000D02*
X200840000Y-74710000D01*
X218800000Y-77200000D02*
X200780000Y-77200000D01*
X200780000Y-66920000D01*
X218800000Y-66920000D01*
X218800000Y-77200000D01*
X218740000Y-73060000D02*
G75*
G02*
X218740000Y-71060000I0J1000000D01*
G01*
%TO.C,C1*%
X172130000Y-51880000D02*
X172130000Y-52028000D01*
X172130000Y-53972000D02*
X172130000Y-54120000D01*
X172130000Y-54120000D02*
X175370000Y-54120000D01*
X175370000Y-51880000D02*
X172130000Y-51880000D01*
X175370000Y-52028000D02*
X175370000Y-51880000D01*
X175370000Y-54120000D02*
X175370000Y-53972000D01*
%TO.C,U1*%
X158905000Y-70630000D02*
X160555000Y-70630000D01*
X158905000Y-88530000D02*
X158905000Y-70630000D01*
X162555000Y-70630000D02*
X164205000Y-70630000D01*
X164205000Y-70630000D02*
X164205000Y-88530000D01*
X164205000Y-88530000D02*
X158905000Y-88530000D01*
X166695000Y-70570000D02*
X156415000Y-70570000D01*
X156415000Y-88590000D01*
X166695000Y-88590000D01*
X166695000Y-70570000D01*
X162555000Y-70630000D02*
G75*
G02*
X160555000Y-70630000I-1000000J0D01*
G01*
%TD*%
M02*
