%TF.GenerationSoftware,KiCad,Pcbnew,9.0.5*%
%TF.CreationDate,2026-05-30T11:00:58+05:30*%
%TF.ProjectId,full_Adder_csmss,66756c6c-5f41-4646-9465-725f63736d73,rev?*%
%TF.SameCoordinates,Original*%
%TF.FileFunction,Copper,L2,Bot*%
%TF.FilePolarity,Positive*%
%FSLAX46Y46*%
G04 Gerber Fmt 4.6, Leading zero omitted, Abs format (unit mm)*
G04 Created by KiCad (PCBNEW 9.0.5) date 2026-05-30 11:00:58*
%MOMM*%
%LPD*%
G01*
G04 APERTURE LIST*
G04 Aperture macros list*
%AMRoundRect*
0 Rectangle with rounded corners*
0 $1 Rounding radius*
0 $2 $3 $4 $5 $6 $7 $8 $9 X,Y pos of 4 corners*
0 Add a 4 corners polygon primitive as box body*
4,1,4,$2,$3,$4,$5,$6,$7,$8,$9,$2,$3,0*
0 Add four circle primitives for the rounded corners*
1,1,$1+$1,$2,$3*
1,1,$1+$1,$4,$5*
1,1,$1+$1,$6,$7*
1,1,$1+$1,$8,$9*
0 Add four rect primitives between the rounded corners*
20,1,$1+$1,$2,$3,$4,$5,0*
20,1,$1+$1,$4,$5,$6,$7,0*
20,1,$1+$1,$6,$7,$8,$9,0*
20,1,$1+$1,$8,$9,$2,$3,0*%
G04 Aperture macros list end*
%ADD10C,0.554000*%
%TA.AperFunction,NonConductor*%
%ADD11C,0.554000*%
%TD*%
%TA.AperFunction,ComponentPad*%
%ADD12C,8.000000*%
%TD*%
%TA.AperFunction,ComponentPad*%
%ADD13RoundRect,0.250000X0.550000X-0.550000X0.550000X0.550000X-0.550000X0.550000X-0.550000X-0.550000X0*%
%TD*%
%TA.AperFunction,ComponentPad*%
%ADD14C,1.600000*%
%TD*%
%TA.AperFunction,ComponentPad*%
%ADD15RoundRect,0.250000X0.550000X0.550000X-0.550000X0.550000X-0.550000X-0.550000X0.550000X-0.550000X0*%
%TD*%
%TA.AperFunction,Conductor*%
%ADD16C,1.250000*%
%TD*%
%TA.AperFunction,Conductor*%
%ADD17C,0.996000*%
%TD*%
G04 APERTURE END LIST*
D10*
D11*
X224877527Y-142194366D02*
X224877527Y-139932366D01*
X224877527Y-142086652D02*
X225092955Y-142194366D01*
X225092955Y-142194366D02*
X225523812Y-142194366D01*
X225523812Y-142194366D02*
X225739241Y-142086652D01*
X225739241Y-142086652D02*
X225846955Y-141978937D01*
X225846955Y-141978937D02*
X225954669Y-141763509D01*
X225954669Y-141763509D02*
X225954669Y-141117223D01*
X225954669Y-141117223D02*
X225846955Y-140901794D01*
X225846955Y-140901794D02*
X225739241Y-140794080D01*
X225739241Y-140794080D02*
X225523812Y-140686366D01*
X225523812Y-140686366D02*
X225092955Y-140686366D01*
X225092955Y-140686366D02*
X224877527Y-140794080D01*
X222938670Y-142086652D02*
X223154098Y-142194366D01*
X223154098Y-142194366D02*
X223584956Y-142194366D01*
X223584956Y-142194366D02*
X223800384Y-142086652D01*
X223800384Y-142086652D02*
X223908098Y-141871223D01*
X223908098Y-141871223D02*
X223908098Y-141009509D01*
X223908098Y-141009509D02*
X223800384Y-140794080D01*
X223800384Y-140794080D02*
X223584956Y-140686366D01*
X223584956Y-140686366D02*
X223154098Y-140686366D01*
X223154098Y-140686366D02*
X222938670Y-140794080D01*
X222938670Y-140794080D02*
X222830956Y-141009509D01*
X222830956Y-141009509D02*
X222830956Y-141224937D01*
X222830956Y-141224937D02*
X223908098Y-141440366D01*
X221969241Y-142086652D02*
X221753813Y-142194366D01*
X221753813Y-142194366D02*
X221322956Y-142194366D01*
X221322956Y-142194366D02*
X221107527Y-142086652D01*
X221107527Y-142086652D02*
X220999813Y-141871223D01*
X220999813Y-141871223D02*
X220999813Y-141763509D01*
X220999813Y-141763509D02*
X221107527Y-141548080D01*
X221107527Y-141548080D02*
X221322956Y-141440366D01*
X221322956Y-141440366D02*
X221646099Y-141440366D01*
X221646099Y-141440366D02*
X221861527Y-141332652D01*
X221861527Y-141332652D02*
X221969241Y-141117223D01*
X221969241Y-141117223D02*
X221969241Y-141009509D01*
X221969241Y-141009509D02*
X221861527Y-140794080D01*
X221861527Y-140794080D02*
X221646099Y-140686366D01*
X221646099Y-140686366D02*
X221322956Y-140686366D01*
X221322956Y-140686366D02*
X221107527Y-140794080D01*
X220030384Y-142194366D02*
X220030384Y-140686366D01*
X220030384Y-139932366D02*
X220138098Y-140040080D01*
X220138098Y-140040080D02*
X220030384Y-140147794D01*
X220030384Y-140147794D02*
X219922670Y-140040080D01*
X219922670Y-140040080D02*
X220030384Y-139932366D01*
X220030384Y-139932366D02*
X220030384Y-140147794D01*
X217983813Y-140686366D02*
X217983813Y-142517509D01*
X217983813Y-142517509D02*
X218091527Y-142732937D01*
X218091527Y-142732937D02*
X218199241Y-142840652D01*
X218199241Y-142840652D02*
X218414670Y-142948366D01*
X218414670Y-142948366D02*
X218737813Y-142948366D01*
X218737813Y-142948366D02*
X218953241Y-142840652D01*
X217983813Y-142086652D02*
X218199241Y-142194366D01*
X218199241Y-142194366D02*
X218630098Y-142194366D01*
X218630098Y-142194366D02*
X218845527Y-142086652D01*
X218845527Y-142086652D02*
X218953241Y-141978937D01*
X218953241Y-141978937D02*
X219060955Y-141763509D01*
X219060955Y-141763509D02*
X219060955Y-141117223D01*
X219060955Y-141117223D02*
X218953241Y-140901794D01*
X218953241Y-140901794D02*
X218845527Y-140794080D01*
X218845527Y-140794080D02*
X218630098Y-140686366D01*
X218630098Y-140686366D02*
X218199241Y-140686366D01*
X218199241Y-140686366D02*
X217983813Y-140794080D01*
X216906670Y-140686366D02*
X216906670Y-142194366D01*
X216906670Y-140901794D02*
X216798956Y-140794080D01*
X216798956Y-140794080D02*
X216583527Y-140686366D01*
X216583527Y-140686366D02*
X216260384Y-140686366D01*
X216260384Y-140686366D02*
X216044956Y-140794080D01*
X216044956Y-140794080D02*
X215937242Y-141009509D01*
X215937242Y-141009509D02*
X215937242Y-142194366D01*
X213136670Y-142194366D02*
X213136670Y-139932366D01*
X213136670Y-140794080D02*
X212921242Y-140686366D01*
X212921242Y-140686366D02*
X212490384Y-140686366D01*
X212490384Y-140686366D02*
X212274956Y-140794080D01*
X212274956Y-140794080D02*
X212167242Y-140901794D01*
X212167242Y-140901794D02*
X212059527Y-141117223D01*
X212059527Y-141117223D02*
X212059527Y-141763509D01*
X212059527Y-141763509D02*
X212167242Y-141978937D01*
X212167242Y-141978937D02*
X212274956Y-142086652D01*
X212274956Y-142086652D02*
X212490384Y-142194366D01*
X212490384Y-142194366D02*
X212921242Y-142194366D01*
X212921242Y-142194366D02*
X213136670Y-142086652D01*
X211305528Y-140686366D02*
X210766956Y-142194366D01*
X210228385Y-140686366D02*
X210766956Y-142194366D01*
X210766956Y-142194366D02*
X210982385Y-142732937D01*
X210982385Y-142732937D02*
X211090099Y-142840652D01*
X211090099Y-142840652D02*
X211305528Y-142948366D01*
X207643241Y-141978937D02*
X207535527Y-142086652D01*
X207535527Y-142086652D02*
X207643241Y-142194366D01*
X207643241Y-142194366D02*
X207750955Y-142086652D01*
X207750955Y-142086652D02*
X207643241Y-141978937D01*
X207643241Y-141978937D02*
X207643241Y-142194366D01*
X207643241Y-140794080D02*
X207535527Y-140901794D01*
X207535527Y-140901794D02*
X207643241Y-141009509D01*
X207643241Y-141009509D02*
X207750955Y-140901794D01*
X207750955Y-140901794D02*
X207643241Y-140794080D01*
X207643241Y-140794080D02*
X207643241Y-141009509D01*
X204950383Y-142086652D02*
X204734955Y-142194366D01*
X204734955Y-142194366D02*
X204304098Y-142194366D01*
X204304098Y-142194366D02*
X204088669Y-142086652D01*
X204088669Y-142086652D02*
X203980955Y-141871223D01*
X203980955Y-141871223D02*
X203980955Y-141763509D01*
X203980955Y-141763509D02*
X204088669Y-141548080D01*
X204088669Y-141548080D02*
X204304098Y-141440366D01*
X204304098Y-141440366D02*
X204627241Y-141440366D01*
X204627241Y-141440366D02*
X204842669Y-141332652D01*
X204842669Y-141332652D02*
X204950383Y-141117223D01*
X204950383Y-141117223D02*
X204950383Y-141009509D01*
X204950383Y-141009509D02*
X204842669Y-140794080D01*
X204842669Y-140794080D02*
X204627241Y-140686366D01*
X204627241Y-140686366D02*
X204304098Y-140686366D01*
X204304098Y-140686366D02*
X204088669Y-140794080D01*
X202042098Y-142194366D02*
X202042098Y-141009509D01*
X202042098Y-141009509D02*
X202149812Y-140794080D01*
X202149812Y-140794080D02*
X202365240Y-140686366D01*
X202365240Y-140686366D02*
X202796098Y-140686366D01*
X202796098Y-140686366D02*
X203011526Y-140794080D01*
X202042098Y-142086652D02*
X202257526Y-142194366D01*
X202257526Y-142194366D02*
X202796098Y-142194366D01*
X202796098Y-142194366D02*
X203011526Y-142086652D01*
X203011526Y-142086652D02*
X203119240Y-141871223D01*
X203119240Y-141871223D02*
X203119240Y-141655794D01*
X203119240Y-141655794D02*
X203011526Y-141440366D01*
X203011526Y-141440366D02*
X202796098Y-141332652D01*
X202796098Y-141332652D02*
X202257526Y-141332652D01*
X202257526Y-141332652D02*
X202042098Y-141224937D01*
X200964955Y-140686366D02*
X200964955Y-142194366D01*
X200964955Y-140901794D02*
X200857241Y-140794080D01*
X200857241Y-140794080D02*
X200641812Y-140686366D01*
X200641812Y-140686366D02*
X200318669Y-140686366D01*
X200318669Y-140686366D02*
X200103241Y-140794080D01*
X200103241Y-140794080D02*
X199995527Y-141009509D01*
X199995527Y-141009509D02*
X199995527Y-142194366D01*
X197948956Y-142194366D02*
X197948956Y-139932366D01*
X197948956Y-142086652D02*
X198164384Y-142194366D01*
X198164384Y-142194366D02*
X198595241Y-142194366D01*
X198595241Y-142194366D02*
X198810670Y-142086652D01*
X198810670Y-142086652D02*
X198918384Y-141978937D01*
X198918384Y-141978937D02*
X199026098Y-141763509D01*
X199026098Y-141763509D02*
X199026098Y-141117223D01*
X199026098Y-141117223D02*
X198918384Y-140901794D01*
X198918384Y-140901794D02*
X198810670Y-140794080D01*
X198810670Y-140794080D02*
X198595241Y-140686366D01*
X198595241Y-140686366D02*
X198164384Y-140686366D01*
X198164384Y-140686366D02*
X197948956Y-140794080D01*
X196010099Y-142086652D02*
X196225527Y-142194366D01*
X196225527Y-142194366D02*
X196656385Y-142194366D01*
X196656385Y-142194366D02*
X196871813Y-142086652D01*
X196871813Y-142086652D02*
X196979527Y-141871223D01*
X196979527Y-141871223D02*
X196979527Y-141009509D01*
X196979527Y-141009509D02*
X196871813Y-140794080D01*
X196871813Y-140794080D02*
X196656385Y-140686366D01*
X196656385Y-140686366D02*
X196225527Y-140686366D01*
X196225527Y-140686366D02*
X196010099Y-140794080D01*
X196010099Y-140794080D02*
X195902385Y-141009509D01*
X195902385Y-141009509D02*
X195902385Y-141224937D01*
X195902385Y-141224937D02*
X196979527Y-141440366D01*
X194071242Y-142086652D02*
X194286670Y-142194366D01*
X194286670Y-142194366D02*
X194717528Y-142194366D01*
X194717528Y-142194366D02*
X194932956Y-142086652D01*
X194932956Y-142086652D02*
X195040670Y-141871223D01*
X195040670Y-141871223D02*
X195040670Y-141009509D01*
X195040670Y-141009509D02*
X194932956Y-140794080D01*
X194932956Y-140794080D02*
X194717528Y-140686366D01*
X194717528Y-140686366D02*
X194286670Y-140686366D01*
X194286670Y-140686366D02*
X194071242Y-140794080D01*
X194071242Y-140794080D02*
X193963528Y-141009509D01*
X193963528Y-141009509D02*
X193963528Y-141224937D01*
X193963528Y-141224937D02*
X195040670Y-141440366D01*
X192994099Y-140686366D02*
X192994099Y-142948366D01*
X192994099Y-140794080D02*
X192778671Y-140686366D01*
X192778671Y-140686366D02*
X192347813Y-140686366D01*
X192347813Y-140686366D02*
X192132385Y-140794080D01*
X192132385Y-140794080D02*
X192024671Y-140901794D01*
X192024671Y-140901794D02*
X191916956Y-141117223D01*
X191916956Y-141117223D02*
X191916956Y-141763509D01*
X191916956Y-141763509D02*
X192024671Y-141978937D01*
X192024671Y-141978937D02*
X192132385Y-142086652D01*
X192132385Y-142086652D02*
X192347813Y-142194366D01*
X192347813Y-142194366D02*
X192778671Y-142194366D01*
X192778671Y-142194366D02*
X192994099Y-142086652D01*
X189224099Y-140686366D02*
X189224099Y-142948366D01*
X189224099Y-140794080D02*
X189008671Y-140686366D01*
X189008671Y-140686366D02*
X188577813Y-140686366D01*
X188577813Y-140686366D02*
X188362385Y-140794080D01*
X188362385Y-140794080D02*
X188254671Y-140901794D01*
X188254671Y-140901794D02*
X188146956Y-141117223D01*
X188146956Y-141117223D02*
X188146956Y-141763509D01*
X188146956Y-141763509D02*
X188254671Y-141978937D01*
X188254671Y-141978937D02*
X188362385Y-142086652D01*
X188362385Y-142086652D02*
X188577813Y-142194366D01*
X188577813Y-142194366D02*
X189008671Y-142194366D01*
X189008671Y-142194366D02*
X189224099Y-142086652D01*
X186208100Y-142194366D02*
X186208100Y-141009509D01*
X186208100Y-141009509D02*
X186315814Y-140794080D01*
X186315814Y-140794080D02*
X186531242Y-140686366D01*
X186531242Y-140686366D02*
X186962100Y-140686366D01*
X186962100Y-140686366D02*
X187177528Y-140794080D01*
X186208100Y-142086652D02*
X186423528Y-142194366D01*
X186423528Y-142194366D02*
X186962100Y-142194366D01*
X186962100Y-142194366D02*
X187177528Y-142086652D01*
X187177528Y-142086652D02*
X187285242Y-141871223D01*
X187285242Y-141871223D02*
X187285242Y-141655794D01*
X187285242Y-141655794D02*
X187177528Y-141440366D01*
X187177528Y-141440366D02*
X186962100Y-141332652D01*
X186962100Y-141332652D02*
X186423528Y-141332652D01*
X186423528Y-141332652D02*
X186208100Y-141224937D01*
X184807814Y-142194366D02*
X185023243Y-142086652D01*
X185023243Y-142086652D02*
X185130957Y-141871223D01*
X185130957Y-141871223D02*
X185130957Y-139932366D01*
D12*
%TO.P,J9,1,Pin_1*%
%TO.N,Net-(J9-Pin_1)*%
X94010000Y-89715000D03*
%TD*%
%TO.P,J10,1,Pin_1*%
%TO.N,Net-(J10-Pin_1)*%
X125470000Y-89635000D03*
%TD*%
%TO.P,J8,1,Pin_1*%
%TO.N,Net-(J8-Pin_1)*%
X94010000Y-118465000D03*
%TD*%
%TO.P,J1,1,Pin_1*%
%TO.N,Net-(J1-Pin_1)*%
X183135000Y-57535000D03*
%TD*%
%TO.P,J11,1,Pin_1*%
%TO.N,Net-(J11-Pin_1)*%
X125010000Y-117965000D03*
%TD*%
%TO.P,J6,1,Pin_1*%
%TO.N,Net-(J6-Pin_1)*%
X164960000Y-58830000D03*
%TD*%
D13*
%TO.P,U3,1*%
%TO.N,unconnected-(U3-Pad1)*%
X221420000Y-115135000D03*
D14*
%TO.P,U3,2*%
%TO.N,unconnected-(U3-Pad2)*%
X218880000Y-115135000D03*
%TO.P,U3,3*%
%TO.N,unconnected-(U3-Pad3)*%
X216340000Y-115135000D03*
%TO.P,U3,4*%
%TO.N,unconnected-(U3-Pad4)*%
X213800000Y-115135000D03*
%TO.P,U3,5*%
%TO.N,unconnected-(U3-Pad5)*%
X211260000Y-115135000D03*
%TO.P,U3,6*%
%TO.N,unconnected-(U3-Pad6)*%
X208720000Y-115135000D03*
%TO.P,U3,7,GND*%
%TO.N,Net-(J7-Pin_1)*%
X206180000Y-115135000D03*
%TO.P,U3,8*%
%TO.N,Net-(J4-Pin_1)*%
X206180000Y-107515000D03*
%TO.P,U3,9*%
%TO.N,Net-(U2-Pad3)*%
X208720000Y-107515000D03*
%TO.P,U3,10*%
%TO.N,Net-(U2-Pad8)*%
X211260000Y-107515000D03*
%TO.P,U3,11*%
%TO.N,unconnected-(U3-Pad11)*%
X213800000Y-107515000D03*
%TO.P,U3,12*%
%TO.N,unconnected-(U3-Pad12)*%
X216340000Y-107515000D03*
%TO.P,U3,13*%
%TO.N,unconnected-(U3-Pad13)*%
X218880000Y-107515000D03*
%TO.P,U3,14,VCC*%
%TO.N,Net-(J6-Pin_1)*%
X221420000Y-107515000D03*
%TD*%
D13*
%TO.P,U2,1*%
%TO.N,Net-(U1-Pad3)*%
X217410000Y-75870000D03*
D14*
%TO.P,U2,2*%
%TO.N,Net-(J3-Pin_1)*%
X214870000Y-75870000D03*
%TO.P,U2,3*%
%TO.N,Net-(U2-Pad3)*%
X212330000Y-75870000D03*
%TO.P,U2,4*%
%TO.N,Net-(J8-Pin_1)*%
X209790000Y-75870000D03*
%TO.P,U2,5*%
%TO.N,Net-(J9-Pin_1)*%
X207250000Y-75870000D03*
%TO.P,U2,6*%
%TO.N,Net-(J11-Pin_1)*%
X204710000Y-75870000D03*
%TO.P,U2,7,GND*%
%TO.N,Net-(J7-Pin_1)*%
X202170000Y-75870000D03*
%TO.P,U2,8*%
%TO.N,Net-(U2-Pad8)*%
X202170000Y-68250000D03*
%TO.P,U2,9*%
%TO.N,Net-(J2-Pin_1)*%
X204710000Y-68250000D03*
%TO.P,U2,10*%
%TO.N,Net-(J1-Pin_1)*%
X207250000Y-68250000D03*
%TO.P,U2,11*%
%TO.N,unconnected-(U2-Pad11)*%
X209790000Y-68250000D03*
%TO.P,U2,12*%
%TO.N,unconnected-(U2-Pad12)*%
X212330000Y-68250000D03*
%TO.P,U2,13*%
%TO.N,unconnected-(U2-Pad13)*%
X214870000Y-68250000D03*
%TO.P,U2,14,VCC*%
%TO.N,Net-(J6-Pin_1)*%
X217410000Y-68250000D03*
%TD*%
D12*
%TO.P,J4,1,Pin_1*%
%TO.N,Net-(J4-Pin_1)*%
X183000000Y-127000000D03*
%TD*%
D14*
%TO.P,C1,1*%
%TO.N,Net-(J6-Pin_1)*%
X172500000Y-53000000D03*
%TO.P,C1,2*%
%TO.N,Net-(J7-Pin_1)*%
X175000000Y-53000000D03*
%TD*%
D15*
%TO.P,U1,1*%
%TO.N,Net-(J1-Pin_1)*%
X165365000Y-71960000D03*
D14*
%TO.P,U1,2*%
%TO.N,Net-(J2-Pin_1)*%
X165365000Y-74500000D03*
%TO.P,U1,3*%
%TO.N,Net-(U1-Pad3)*%
X165365000Y-77040000D03*
%TO.P,U1,4*%
X165365000Y-79580000D03*
%TO.P,U1,5*%
%TO.N,Net-(J3-Pin_1)*%
X165365000Y-82120000D03*
%TO.P,U1,6*%
%TO.N,Net-(J5-Pin_1)*%
X165365000Y-84660000D03*
%TO.P,U1,7,GND*%
%TO.N,Net-(J7-Pin_1)*%
X165365000Y-87200000D03*
%TO.P,U1,8*%
%TO.N,Net-(J10-Pin_1)*%
X157745000Y-87200000D03*
%TO.P,U1,9*%
%TO.N,Net-(J8-Pin_1)*%
X157745000Y-84660000D03*
%TO.P,U1,10*%
%TO.N,Net-(J9-Pin_1)*%
X157745000Y-82120000D03*
%TO.P,U1,11*%
%TO.N,unconnected-(U1-Pad11)*%
X157745000Y-79580000D03*
%TO.P,U1,12*%
%TO.N,unconnected-(U1-Pad12)*%
X157745000Y-77040000D03*
%TO.P,U1,13*%
%TO.N,unconnected-(U1-Pad13)*%
X157745000Y-74500000D03*
%TO.P,U1,14,VCC*%
%TO.N,Net-(J6-Pin_1)*%
X157745000Y-71960000D03*
%TD*%
D12*
%TO.P,J7,1,Pin_1*%
%TO.N,Net-(J7-Pin_1)*%
X140500000Y-58750000D03*
%TD*%
%TO.P,J2,1,Pin_1*%
%TO.N,Net-(J2-Pin_1)*%
X182635000Y-73365000D03*
%TD*%
%TO.P,J5,1,Pin_1*%
%TO.N,Net-(J5-Pin_1)*%
X182750000Y-108000000D03*
%TD*%
%TO.P,J3,1,Pin_1*%
%TO.N,Net-(J3-Pin_1)*%
X182305000Y-91825000D03*
%TD*%
D16*
%TO.N,Net-(J1-Pin_1)*%
X183135000Y-57535000D02*
X202265000Y-57535000D01*
X175845000Y-57535000D02*
X183135000Y-57535000D01*
X165365000Y-68015000D02*
X175845000Y-57535000D01*
X202265000Y-57535000D02*
X207260000Y-62530000D01*
X165365000Y-71960000D02*
X165365000Y-68015000D01*
X183135000Y-57535000D02*
X183345000Y-57535000D01*
X207260000Y-62530000D02*
X207260000Y-68265000D01*
X183345000Y-57535000D02*
X185055000Y-55825000D01*
%TO.N,Net-(J2-Pin_1)*%
X198780000Y-62325000D02*
X204720000Y-68265000D01*
X182635000Y-73365000D02*
X193675000Y-62325000D01*
X181500000Y-74500000D02*
X165365000Y-74500000D01*
X182635000Y-73365000D02*
X181500000Y-74500000D01*
X193675000Y-62325000D02*
X198780000Y-62325000D01*
X181630000Y-74500000D02*
X182805000Y-73325000D01*
%TO.N,Net-(J3-Pin_1)*%
X194673024Y-74259000D02*
X195241000Y-74259000D01*
X185107024Y-83825000D02*
X194673024Y-74259000D01*
X182305000Y-83825000D02*
X185107024Y-83825000D01*
X212745000Y-73750000D02*
X214880000Y-75885000D01*
X195750000Y-73750000D02*
X212745000Y-73750000D01*
X195241000Y-74259000D02*
X195750000Y-73750000D01*
X172600000Y-82120000D02*
X165365000Y-82120000D01*
X182305000Y-91825000D02*
X182305000Y-83825000D01*
X172600000Y-82120000D02*
X182305000Y-91825000D01*
%TO.N,Net-(J4-Pin_1)*%
X226570000Y-127000000D02*
X230000000Y-123570000D01*
X183000000Y-127000000D02*
X226570000Y-127000000D01*
X230000000Y-123570000D02*
X230000000Y-111451000D01*
X228549000Y-110000000D02*
X208665000Y-110000000D01*
X230000000Y-111451000D02*
X228549000Y-110000000D01*
X208665000Y-110000000D02*
X206180000Y-107515000D01*
%TO.N,Net-(J5-Pin_1)*%
X168640000Y-84660000D02*
X165365000Y-84660000D01*
X168640000Y-84660000D02*
X172055000Y-88075000D01*
X175480000Y-108000000D02*
X182750000Y-108000000D01*
X172055000Y-104575000D02*
X175480000Y-108000000D01*
X172055000Y-88075000D02*
X172055000Y-104575000D01*
%TO.N,Net-(J6-Pin_1)*%
X164960000Y-58830000D02*
X157745000Y-66045000D01*
X157930000Y-71775000D02*
X157745000Y-71960000D01*
X233750000Y-104880000D02*
X231115000Y-107515000D01*
X228595000Y-47825000D02*
X233750000Y-52980000D01*
X233750000Y-52980000D02*
X233750000Y-104880000D01*
X217420000Y-68265000D02*
X217420000Y-48190000D01*
X231115000Y-107515000D02*
X221420000Y-107515000D01*
X217420000Y-48190000D02*
X217055000Y-47825000D01*
X170925000Y-47825000D02*
X164960000Y-53790000D01*
X164960000Y-58830000D02*
X166670000Y-58830000D01*
X164960000Y-53790000D02*
X164960000Y-58830000D01*
X217055000Y-47825000D02*
X218250000Y-47825000D01*
X157745000Y-66045000D02*
X157745000Y-71960000D01*
X218250000Y-47825000D02*
X170925000Y-47825000D01*
X218250000Y-47825000D02*
X228595000Y-47825000D01*
D17*
X166670000Y-58830000D02*
X172500000Y-53000000D01*
%TO.N,Net-(J7-Pin_1)*%
X162750000Y-67864995D02*
X175000000Y-55614995D01*
X162750000Y-84585000D02*
X162750000Y-67864995D01*
D16*
X165805000Y-115135000D02*
X206180000Y-115135000D01*
D17*
X175000000Y-55614995D02*
X175000000Y-53000000D01*
D16*
X206180000Y-115135000D02*
X204615000Y-115135000D01*
D17*
X165365000Y-87200000D02*
X162750000Y-84585000D01*
D16*
X194305000Y-79575000D02*
X197995000Y-75885000D01*
X149470000Y-96885000D02*
X164865000Y-96885000D01*
X140470000Y-87885000D02*
X149470000Y-96885000D01*
X194305000Y-104825000D02*
X194305000Y-79575000D01*
X197995000Y-75885000D02*
X202180000Y-75885000D01*
X140470000Y-59135000D02*
X140470000Y-87885000D01*
X204615000Y-115135000D02*
X194305000Y-104825000D01*
X164865000Y-96885000D02*
X165365000Y-96385000D01*
X165365000Y-96385000D02*
X165365000Y-114695000D01*
X165365000Y-87200000D02*
X165365000Y-96385000D01*
X165365000Y-114695000D02*
X165805000Y-115135000D01*
%TO.N,Net-(U1-Pad3)*%
X193055000Y-72325000D02*
X193175000Y-72325000D01*
X193175000Y-72325000D02*
X193500000Y-72000000D01*
X193500000Y-72000000D02*
X215730000Y-72000000D01*
X185800000Y-79580000D02*
X193055000Y-72325000D01*
X165365000Y-79580000D02*
X185800000Y-79580000D01*
X165365000Y-79580000D02*
X165365000Y-77040000D01*
X217420000Y-73690000D02*
X217420000Y-75885000D01*
X215730000Y-72000000D02*
X217420000Y-73690000D01*
%TO.N,Net-(U2-Pad8)*%
X204240000Y-70325000D02*
X202180000Y-68265000D01*
X225055000Y-81825000D02*
X228055000Y-78825000D01*
X228055000Y-78825000D02*
X228055000Y-73075000D01*
X217055000Y-81825000D02*
X225055000Y-81825000D01*
X211260000Y-107515000D02*
X211260000Y-87620000D01*
X211260000Y-87620000D02*
X217055000Y-81825000D01*
X228055000Y-73075000D02*
X225305000Y-70325000D01*
X225305000Y-70325000D02*
X204240000Y-70325000D01*
%TO.N,Net-(U2-Pad3)*%
X208720000Y-107515000D02*
X208720000Y-86410000D01*
X212340000Y-82790000D02*
X212340000Y-75885000D01*
X208720000Y-86410000D02*
X212340000Y-82790000D01*
%TO.N,unconnected-(U3-Pad2)*%
X218880000Y-115135000D02*
X218880000Y-115223622D01*
%TO.N,Net-(J8-Pin_1)*%
X131220000Y-40635000D02*
X102220000Y-69635000D01*
X149470000Y-78635000D02*
X149470000Y-45885000D01*
X155495000Y-84660000D02*
X149470000Y-78635000D01*
X157745000Y-84660000D02*
X155495000Y-84660000D01*
X149470000Y-45885000D02*
X144220000Y-40635000D01*
X102220000Y-69635000D02*
X102220000Y-116280000D01*
X144220000Y-40635000D02*
X131220000Y-40635000D01*
X102220000Y-116280000D02*
X100035000Y-118465000D01*
X100035000Y-118465000D02*
X94010000Y-118465000D01*
%TO.N,Net-(J9-Pin_1)*%
X126250000Y-37250000D02*
X94010000Y-69490000D01*
X152470000Y-44220000D02*
X145500000Y-37250000D01*
X145500000Y-37250000D02*
X126250000Y-37250000D01*
X152470000Y-76845000D02*
X152470000Y-44220000D01*
X94010000Y-69490000D02*
X94010000Y-89715000D01*
X157745000Y-82120000D02*
X152470000Y-76845000D01*
%TO.N,Net-(J10-Pin_1)*%
X157745000Y-87200000D02*
X153535000Y-87200000D01*
X146220000Y-79885000D02*
X146220000Y-49135000D01*
X125470000Y-52135000D02*
X125470000Y-89635000D01*
X131220000Y-46385000D02*
X125470000Y-52135000D01*
X146220000Y-49135000D02*
X143470000Y-46385000D01*
X153535000Y-87200000D02*
X146220000Y-79885000D01*
X143470000Y-46385000D02*
X131220000Y-46385000D01*
%TO.N,Net-(J11-Pin_1)*%
X225750000Y-112500000D02*
X208000000Y-112500000D01*
X227750000Y-118840000D02*
X227750000Y-114500000D01*
X200250000Y-104750000D02*
X200250000Y-81500000D01*
X200250000Y-81500000D02*
X204720000Y-77030000D01*
X227750000Y-114500000D02*
X225750000Y-112500000D01*
X204720000Y-77030000D02*
X204720000Y-75885000D01*
X208000000Y-112500000D02*
X200250000Y-104750000D01*
X125010000Y-117965000D02*
X127795000Y-120750000D01*
X225840000Y-120750000D02*
X227750000Y-118840000D01*
X127795000Y-120750000D02*
X225840000Y-120750000D01*
%TD*%
M02*
