%TF.GenerationSoftware,KiCad,Pcbnew,9.0.5*%
%TF.CreationDate,2026-05-30T11:00:58+05:30*%
%TF.ProjectId,full_Adder_csmss,66756c6c-5f41-4646-9465-725f63736d73,rev?*%
%TF.SameCoordinates,Original*%
%TF.FileFunction,Legend,Top*%
%TF.FilePolarity,Positive*%
%FSLAX46Y46*%
G04 Gerber Fmt 4.6, Leading zero omitted, Abs format (unit mm)*
G04 Created by KiCad (PCBNEW 9.0.5) date 2026-05-30 11:00:58*
%MOMM*%
%LPD*%
G01*
G04 APERTURE LIST*
%ADD10C,0.277800*%
%ADD11C,0.505000*%
%ADD12C,0.554000*%
%ADD13C,0.962000*%
G04 APERTURE END LIST*
D10*
X75750000Y-33250000D02*
X242000000Y-33250000D01*
X242000000Y-153500000D01*
X75750000Y-153500000D01*
X75750000Y-33250000D01*
X158875000Y-33250000D02*
X158875000Y-153500000D01*
D11*
X132601759Y-91536940D02*
X132986521Y-91729320D01*
X132986521Y-91729320D02*
X133756045Y-91729320D01*
X133756045Y-91729320D02*
X134140807Y-91536940D01*
X134140807Y-91536940D02*
X134333188Y-91152178D01*
X134333188Y-91152178D02*
X134333188Y-90959797D01*
X134333188Y-90959797D02*
X134140807Y-90575035D01*
X134140807Y-90575035D02*
X133756045Y-90382654D01*
X133756045Y-90382654D02*
X133178902Y-90382654D01*
X133178902Y-90382654D02*
X132794140Y-90190273D01*
X132794140Y-90190273D02*
X132601759Y-89805511D01*
X132601759Y-89805511D02*
X132601759Y-89613130D01*
X132601759Y-89613130D02*
X132794140Y-89228368D01*
X132794140Y-89228368D02*
X133178902Y-89035987D01*
X133178902Y-89035987D02*
X133756045Y-89035987D01*
X133756045Y-89035987D02*
X134140807Y-89228368D01*
X137796045Y-89035987D02*
X137796045Y-91729320D01*
X136064616Y-89035987D02*
X136064616Y-91152178D01*
X136064616Y-91152178D02*
X136256997Y-91536940D01*
X136256997Y-91536940D02*
X136641759Y-91729320D01*
X136641759Y-91729320D02*
X137218902Y-91729320D01*
X137218902Y-91729320D02*
X137603664Y-91536940D01*
X137603664Y-91536940D02*
X137796045Y-91344559D01*
X139719854Y-91729320D02*
X139719854Y-89035987D01*
X139719854Y-89420749D02*
X139912235Y-89228368D01*
X139912235Y-89228368D02*
X140296997Y-89035987D01*
X140296997Y-89035987D02*
X140874140Y-89035987D01*
X140874140Y-89035987D02*
X141258902Y-89228368D01*
X141258902Y-89228368D02*
X141451283Y-89613130D01*
X141451283Y-89613130D02*
X141451283Y-91729320D01*
X141451283Y-89613130D02*
X141643664Y-89228368D01*
X141643664Y-89228368D02*
X142028426Y-89035987D01*
X142028426Y-89035987D02*
X142605569Y-89035987D01*
X142605569Y-89035987D02*
X142990330Y-89228368D01*
X142990330Y-89228368D02*
X143182711Y-89613130D01*
X143182711Y-89613130D02*
X143182711Y-91729320D01*
X193602712Y-128344559D02*
X193410331Y-128536940D01*
X193410331Y-128536940D02*
X192833188Y-128729320D01*
X192833188Y-128729320D02*
X192448426Y-128729320D01*
X192448426Y-128729320D02*
X191871283Y-128536940D01*
X191871283Y-128536940D02*
X191486521Y-128152178D01*
X191486521Y-128152178D02*
X191294140Y-127767416D01*
X191294140Y-127767416D02*
X191101759Y-126997892D01*
X191101759Y-126997892D02*
X191101759Y-126420749D01*
X191101759Y-126420749D02*
X191294140Y-125651225D01*
X191294140Y-125651225D02*
X191486521Y-125266463D01*
X191486521Y-125266463D02*
X191871283Y-124881701D01*
X191871283Y-124881701D02*
X192448426Y-124689320D01*
X192448426Y-124689320D02*
X192833188Y-124689320D01*
X192833188Y-124689320D02*
X193410331Y-124881701D01*
X193410331Y-124881701D02*
X193602712Y-125074082D01*
X197065569Y-128729320D02*
X197065569Y-126613130D01*
X197065569Y-126613130D02*
X196873188Y-126228368D01*
X196873188Y-126228368D02*
X196488426Y-126035987D01*
X196488426Y-126035987D02*
X195718902Y-126035987D01*
X195718902Y-126035987D02*
X195334140Y-126228368D01*
X197065569Y-128536940D02*
X196680807Y-128729320D01*
X196680807Y-128729320D02*
X195718902Y-128729320D01*
X195718902Y-128729320D02*
X195334140Y-128536940D01*
X195334140Y-128536940D02*
X195141759Y-128152178D01*
X195141759Y-128152178D02*
X195141759Y-127767416D01*
X195141759Y-127767416D02*
X195334140Y-127382654D01*
X195334140Y-127382654D02*
X195718902Y-127190273D01*
X195718902Y-127190273D02*
X196680807Y-127190273D01*
X196680807Y-127190273D02*
X197065569Y-126997892D01*
X198989378Y-128729320D02*
X198989378Y-126035987D01*
X198989378Y-126805511D02*
X199181759Y-126420749D01*
X199181759Y-126420749D02*
X199374140Y-126228368D01*
X199374140Y-126228368D02*
X199758902Y-126035987D01*
X199758902Y-126035987D02*
X200143664Y-126035987D01*
X201490330Y-128729320D02*
X201490330Y-126035987D01*
X201490330Y-126805511D02*
X201682711Y-126420749D01*
X201682711Y-126420749D02*
X201875092Y-126228368D01*
X201875092Y-126228368D02*
X202259854Y-126035987D01*
X202259854Y-126035987D02*
X202644616Y-126035987D01*
X203606520Y-126035987D02*
X204568425Y-128729320D01*
X205530330Y-126035987D02*
X204568425Y-128729320D01*
X204568425Y-128729320D02*
X204183663Y-129691225D01*
X204183663Y-129691225D02*
X203991282Y-129883606D01*
X203991282Y-129883606D02*
X203606520Y-130075987D01*
X83601759Y-119825035D02*
X85525569Y-119825035D01*
X83216997Y-120979320D02*
X84563664Y-116939320D01*
X84563664Y-116939320D02*
X85910331Y-120979320D01*
X193101759Y-57325035D02*
X195025569Y-57325035D01*
X192716997Y-58479320D02*
X194063664Y-54439320D01*
X194063664Y-54439320D02*
X195410331Y-58479320D01*
D12*
X185622473Y-142194366D02*
X185622473Y-139932366D01*
X185622473Y-142086652D02*
X185407044Y-142194366D01*
X185407044Y-142194366D02*
X184976187Y-142194366D01*
X184976187Y-142194366D02*
X184760758Y-142086652D01*
X184760758Y-142086652D02*
X184653044Y-141978937D01*
X184653044Y-141978937D02*
X184545330Y-141763509D01*
X184545330Y-141763509D02*
X184545330Y-141117223D01*
X184545330Y-141117223D02*
X184653044Y-140901794D01*
X184653044Y-140901794D02*
X184760758Y-140794080D01*
X184760758Y-140794080D02*
X184976187Y-140686366D01*
X184976187Y-140686366D02*
X185407044Y-140686366D01*
X185407044Y-140686366D02*
X185622473Y-140794080D01*
X187561329Y-142086652D02*
X187345901Y-142194366D01*
X187345901Y-142194366D02*
X186915044Y-142194366D01*
X186915044Y-142194366D02*
X186699615Y-142086652D01*
X186699615Y-142086652D02*
X186591901Y-141871223D01*
X186591901Y-141871223D02*
X186591901Y-141009509D01*
X186591901Y-141009509D02*
X186699615Y-140794080D01*
X186699615Y-140794080D02*
X186915044Y-140686366D01*
X186915044Y-140686366D02*
X187345901Y-140686366D01*
X187345901Y-140686366D02*
X187561329Y-140794080D01*
X187561329Y-140794080D02*
X187669044Y-141009509D01*
X187669044Y-141009509D02*
X187669044Y-141224937D01*
X187669044Y-141224937D02*
X186591901Y-141440366D01*
X188530758Y-142086652D02*
X188746186Y-142194366D01*
X188746186Y-142194366D02*
X189177043Y-142194366D01*
X189177043Y-142194366D02*
X189392472Y-142086652D01*
X189392472Y-142086652D02*
X189500186Y-141871223D01*
X189500186Y-141871223D02*
X189500186Y-141763509D01*
X189500186Y-141763509D02*
X189392472Y-141548080D01*
X189392472Y-141548080D02*
X189177043Y-141440366D01*
X189177043Y-141440366D02*
X188853901Y-141440366D01*
X188853901Y-141440366D02*
X188638472Y-141332652D01*
X188638472Y-141332652D02*
X188530758Y-141117223D01*
X188530758Y-141117223D02*
X188530758Y-141009509D01*
X188530758Y-141009509D02*
X188638472Y-140794080D01*
X188638472Y-140794080D02*
X188853901Y-140686366D01*
X188853901Y-140686366D02*
X189177043Y-140686366D01*
X189177043Y-140686366D02*
X189392472Y-140794080D01*
X190469615Y-142194366D02*
X190469615Y-140686366D01*
X190469615Y-139932366D02*
X190361901Y-140040080D01*
X190361901Y-140040080D02*
X190469615Y-140147794D01*
X190469615Y-140147794D02*
X190577329Y-140040080D01*
X190577329Y-140040080D02*
X190469615Y-139932366D01*
X190469615Y-139932366D02*
X190469615Y-140147794D01*
X192516187Y-140686366D02*
X192516187Y-142517509D01*
X192516187Y-142517509D02*
X192408472Y-142732937D01*
X192408472Y-142732937D02*
X192300758Y-142840652D01*
X192300758Y-142840652D02*
X192085329Y-142948366D01*
X192085329Y-142948366D02*
X191762187Y-142948366D01*
X191762187Y-142948366D02*
X191546758Y-142840652D01*
X192516187Y-142086652D02*
X192300758Y-142194366D01*
X192300758Y-142194366D02*
X191869901Y-142194366D01*
X191869901Y-142194366D02*
X191654472Y-142086652D01*
X191654472Y-142086652D02*
X191546758Y-141978937D01*
X191546758Y-141978937D02*
X191439044Y-141763509D01*
X191439044Y-141763509D02*
X191439044Y-141117223D01*
X191439044Y-141117223D02*
X191546758Y-140901794D01*
X191546758Y-140901794D02*
X191654472Y-140794080D01*
X191654472Y-140794080D02*
X191869901Y-140686366D01*
X191869901Y-140686366D02*
X192300758Y-140686366D01*
X192300758Y-140686366D02*
X192516187Y-140794080D01*
X193593329Y-140686366D02*
X193593329Y-142194366D01*
X193593329Y-140901794D02*
X193701043Y-140794080D01*
X193701043Y-140794080D02*
X193916472Y-140686366D01*
X193916472Y-140686366D02*
X194239615Y-140686366D01*
X194239615Y-140686366D02*
X194455043Y-140794080D01*
X194455043Y-140794080D02*
X194562758Y-141009509D01*
X194562758Y-141009509D02*
X194562758Y-142194366D01*
X197363329Y-142194366D02*
X197363329Y-139932366D01*
X197363329Y-140794080D02*
X197578758Y-140686366D01*
X197578758Y-140686366D02*
X198009615Y-140686366D01*
X198009615Y-140686366D02*
X198225043Y-140794080D01*
X198225043Y-140794080D02*
X198332758Y-140901794D01*
X198332758Y-140901794D02*
X198440472Y-141117223D01*
X198440472Y-141117223D02*
X198440472Y-141763509D01*
X198440472Y-141763509D02*
X198332758Y-141978937D01*
X198332758Y-141978937D02*
X198225043Y-142086652D01*
X198225043Y-142086652D02*
X198009615Y-142194366D01*
X198009615Y-142194366D02*
X197578758Y-142194366D01*
X197578758Y-142194366D02*
X197363329Y-142086652D01*
X199194471Y-140686366D02*
X199733043Y-142194366D01*
X200271614Y-140686366D02*
X199733043Y-142194366D01*
X199733043Y-142194366D02*
X199517614Y-142732937D01*
X199517614Y-142732937D02*
X199409900Y-142840652D01*
X199409900Y-142840652D02*
X199194471Y-142948366D01*
X202856758Y-141978937D02*
X202964472Y-142086652D01*
X202964472Y-142086652D02*
X202856758Y-142194366D01*
X202856758Y-142194366D02*
X202749044Y-142086652D01*
X202749044Y-142086652D02*
X202856758Y-141978937D01*
X202856758Y-141978937D02*
X202856758Y-142194366D01*
X202856758Y-140794080D02*
X202964472Y-140901794D01*
X202964472Y-140901794D02*
X202856758Y-141009509D01*
X202856758Y-141009509D02*
X202749044Y-140901794D01*
X202749044Y-140901794D02*
X202856758Y-140794080D01*
X202856758Y-140794080D02*
X202856758Y-141009509D01*
X205549616Y-142086652D02*
X205765044Y-142194366D01*
X205765044Y-142194366D02*
X206195901Y-142194366D01*
X206195901Y-142194366D02*
X206411330Y-142086652D01*
X206411330Y-142086652D02*
X206519044Y-141871223D01*
X206519044Y-141871223D02*
X206519044Y-141763509D01*
X206519044Y-141763509D02*
X206411330Y-141548080D01*
X206411330Y-141548080D02*
X206195901Y-141440366D01*
X206195901Y-141440366D02*
X205872759Y-141440366D01*
X205872759Y-141440366D02*
X205657330Y-141332652D01*
X205657330Y-141332652D02*
X205549616Y-141117223D01*
X205549616Y-141117223D02*
X205549616Y-141009509D01*
X205549616Y-141009509D02*
X205657330Y-140794080D01*
X205657330Y-140794080D02*
X205872759Y-140686366D01*
X205872759Y-140686366D02*
X206195901Y-140686366D01*
X206195901Y-140686366D02*
X206411330Y-140794080D01*
X208457902Y-142194366D02*
X208457902Y-141009509D01*
X208457902Y-141009509D02*
X208350187Y-140794080D01*
X208350187Y-140794080D02*
X208134759Y-140686366D01*
X208134759Y-140686366D02*
X207703902Y-140686366D01*
X207703902Y-140686366D02*
X207488473Y-140794080D01*
X208457902Y-142086652D02*
X208242473Y-142194366D01*
X208242473Y-142194366D02*
X207703902Y-142194366D01*
X207703902Y-142194366D02*
X207488473Y-142086652D01*
X207488473Y-142086652D02*
X207380759Y-141871223D01*
X207380759Y-141871223D02*
X207380759Y-141655794D01*
X207380759Y-141655794D02*
X207488473Y-141440366D01*
X207488473Y-141440366D02*
X207703902Y-141332652D01*
X207703902Y-141332652D02*
X208242473Y-141332652D01*
X208242473Y-141332652D02*
X208457902Y-141224937D01*
X209535044Y-140686366D02*
X209535044Y-142194366D01*
X209535044Y-140901794D02*
X209642758Y-140794080D01*
X209642758Y-140794080D02*
X209858187Y-140686366D01*
X209858187Y-140686366D02*
X210181330Y-140686366D01*
X210181330Y-140686366D02*
X210396758Y-140794080D01*
X210396758Y-140794080D02*
X210504473Y-141009509D01*
X210504473Y-141009509D02*
X210504473Y-142194366D01*
X212551044Y-142194366D02*
X212551044Y-139932366D01*
X212551044Y-142086652D02*
X212335615Y-142194366D01*
X212335615Y-142194366D02*
X211904758Y-142194366D01*
X211904758Y-142194366D02*
X211689329Y-142086652D01*
X211689329Y-142086652D02*
X211581615Y-141978937D01*
X211581615Y-141978937D02*
X211473901Y-141763509D01*
X211473901Y-141763509D02*
X211473901Y-141117223D01*
X211473901Y-141117223D02*
X211581615Y-140901794D01*
X211581615Y-140901794D02*
X211689329Y-140794080D01*
X211689329Y-140794080D02*
X211904758Y-140686366D01*
X211904758Y-140686366D02*
X212335615Y-140686366D01*
X212335615Y-140686366D02*
X212551044Y-140794080D01*
X214489900Y-142086652D02*
X214274472Y-142194366D01*
X214274472Y-142194366D02*
X213843615Y-142194366D01*
X213843615Y-142194366D02*
X213628186Y-142086652D01*
X213628186Y-142086652D02*
X213520472Y-141871223D01*
X213520472Y-141871223D02*
X213520472Y-141009509D01*
X213520472Y-141009509D02*
X213628186Y-140794080D01*
X213628186Y-140794080D02*
X213843615Y-140686366D01*
X213843615Y-140686366D02*
X214274472Y-140686366D01*
X214274472Y-140686366D02*
X214489900Y-140794080D01*
X214489900Y-140794080D02*
X214597615Y-141009509D01*
X214597615Y-141009509D02*
X214597615Y-141224937D01*
X214597615Y-141224937D02*
X213520472Y-141440366D01*
X216428757Y-142086652D02*
X216213329Y-142194366D01*
X216213329Y-142194366D02*
X215782472Y-142194366D01*
X215782472Y-142194366D02*
X215567043Y-142086652D01*
X215567043Y-142086652D02*
X215459329Y-141871223D01*
X215459329Y-141871223D02*
X215459329Y-141009509D01*
X215459329Y-141009509D02*
X215567043Y-140794080D01*
X215567043Y-140794080D02*
X215782472Y-140686366D01*
X215782472Y-140686366D02*
X216213329Y-140686366D01*
X216213329Y-140686366D02*
X216428757Y-140794080D01*
X216428757Y-140794080D02*
X216536472Y-141009509D01*
X216536472Y-141009509D02*
X216536472Y-141224937D01*
X216536472Y-141224937D02*
X215459329Y-141440366D01*
X217505900Y-140686366D02*
X217505900Y-142948366D01*
X217505900Y-140794080D02*
X217721329Y-140686366D01*
X217721329Y-140686366D02*
X218152186Y-140686366D01*
X218152186Y-140686366D02*
X218367614Y-140794080D01*
X218367614Y-140794080D02*
X218475329Y-140901794D01*
X218475329Y-140901794D02*
X218583043Y-141117223D01*
X218583043Y-141117223D02*
X218583043Y-141763509D01*
X218583043Y-141763509D02*
X218475329Y-141978937D01*
X218475329Y-141978937D02*
X218367614Y-142086652D01*
X218367614Y-142086652D02*
X218152186Y-142194366D01*
X218152186Y-142194366D02*
X217721329Y-142194366D01*
X217721329Y-142194366D02*
X217505900Y-142086652D01*
X221275900Y-140686366D02*
X221275900Y-142948366D01*
X221275900Y-140794080D02*
X221491329Y-140686366D01*
X221491329Y-140686366D02*
X221922186Y-140686366D01*
X221922186Y-140686366D02*
X222137614Y-140794080D01*
X222137614Y-140794080D02*
X222245329Y-140901794D01*
X222245329Y-140901794D02*
X222353043Y-141117223D01*
X222353043Y-141117223D02*
X222353043Y-141763509D01*
X222353043Y-141763509D02*
X222245329Y-141978937D01*
X222245329Y-141978937D02*
X222137614Y-142086652D01*
X222137614Y-142086652D02*
X221922186Y-142194366D01*
X221922186Y-142194366D02*
X221491329Y-142194366D01*
X221491329Y-142194366D02*
X221275900Y-142086652D01*
X224291900Y-142194366D02*
X224291900Y-141009509D01*
X224291900Y-141009509D02*
X224184185Y-140794080D01*
X224184185Y-140794080D02*
X223968757Y-140686366D01*
X223968757Y-140686366D02*
X223537900Y-140686366D01*
X223537900Y-140686366D02*
X223322471Y-140794080D01*
X224291900Y-142086652D02*
X224076471Y-142194366D01*
X224076471Y-142194366D02*
X223537900Y-142194366D01*
X223537900Y-142194366D02*
X223322471Y-142086652D01*
X223322471Y-142086652D02*
X223214757Y-141871223D01*
X223214757Y-141871223D02*
X223214757Y-141655794D01*
X223214757Y-141655794D02*
X223322471Y-141440366D01*
X223322471Y-141440366D02*
X223537900Y-141332652D01*
X223537900Y-141332652D02*
X224076471Y-141332652D01*
X224076471Y-141332652D02*
X224291900Y-141224937D01*
X225692185Y-142194366D02*
X225476756Y-142086652D01*
X225476756Y-142086652D02*
X225369042Y-141871223D01*
X225369042Y-141871223D02*
X225369042Y-139932366D01*
D11*
X194890807Y-72613130D02*
X195467950Y-72805511D01*
X195467950Y-72805511D02*
X195660331Y-72997892D01*
X195660331Y-72997892D02*
X195852712Y-73382654D01*
X195852712Y-73382654D02*
X195852712Y-73959797D01*
X195852712Y-73959797D02*
X195660331Y-74344559D01*
X195660331Y-74344559D02*
X195467950Y-74536940D01*
X195467950Y-74536940D02*
X195083188Y-74729320D01*
X195083188Y-74729320D02*
X193544140Y-74729320D01*
X193544140Y-74729320D02*
X193544140Y-70689320D01*
X193544140Y-70689320D02*
X194890807Y-70689320D01*
X194890807Y-70689320D02*
X195275569Y-70881701D01*
X195275569Y-70881701D02*
X195467950Y-71074082D01*
X195467950Y-71074082D02*
X195660331Y-71458844D01*
X195660331Y-71458844D02*
X195660331Y-71843606D01*
X195660331Y-71843606D02*
X195467950Y-72228368D01*
X195467950Y-72228368D02*
X195275569Y-72420749D01*
X195275569Y-72420749D02*
X194890807Y-72613130D01*
X194890807Y-72613130D02*
X193544140Y-72613130D01*
X190851759Y-109286940D02*
X191236521Y-109479320D01*
X191236521Y-109479320D02*
X192006045Y-109479320D01*
X192006045Y-109479320D02*
X192390807Y-109286940D01*
X192390807Y-109286940D02*
X192583188Y-108902178D01*
X192583188Y-108902178D02*
X192583188Y-108709797D01*
X192583188Y-108709797D02*
X192390807Y-108325035D01*
X192390807Y-108325035D02*
X192006045Y-108132654D01*
X192006045Y-108132654D02*
X191428902Y-108132654D01*
X191428902Y-108132654D02*
X191044140Y-107940273D01*
X191044140Y-107940273D02*
X190851759Y-107555511D01*
X190851759Y-107555511D02*
X190851759Y-107363130D01*
X190851759Y-107363130D02*
X191044140Y-106978368D01*
X191044140Y-106978368D02*
X191428902Y-106785987D01*
X191428902Y-106785987D02*
X192006045Y-106785987D01*
X192006045Y-106785987D02*
X192390807Y-106978368D01*
X196046045Y-106785987D02*
X196046045Y-109479320D01*
X194314616Y-106785987D02*
X194314616Y-108902178D01*
X194314616Y-108902178D02*
X194506997Y-109286940D01*
X194506997Y-109286940D02*
X194891759Y-109479320D01*
X194891759Y-109479320D02*
X195468902Y-109479320D01*
X195468902Y-109479320D02*
X195853664Y-109286940D01*
X195853664Y-109286940D02*
X196046045Y-109094559D01*
X197969854Y-109479320D02*
X197969854Y-106785987D01*
X197969854Y-107170749D02*
X198162235Y-106978368D01*
X198162235Y-106978368D02*
X198546997Y-106785987D01*
X198546997Y-106785987D02*
X199124140Y-106785987D01*
X199124140Y-106785987D02*
X199508902Y-106978368D01*
X199508902Y-106978368D02*
X199701283Y-107363130D01*
X199701283Y-107363130D02*
X199701283Y-109479320D01*
X199701283Y-107363130D02*
X199893664Y-106978368D01*
X199893664Y-106978368D02*
X200278426Y-106785987D01*
X200278426Y-106785987D02*
X200855569Y-106785987D01*
X200855569Y-106785987D02*
X201240330Y-106978368D01*
X201240330Y-106978368D02*
X201432711Y-107363130D01*
X201432711Y-107363130D02*
X201432711Y-109479320D01*
X160794140Y-66940273D02*
X163872236Y-66940273D01*
X162333188Y-68479320D02*
X162333188Y-65401225D01*
X167719855Y-64439320D02*
X165796045Y-64439320D01*
X165796045Y-64439320D02*
X165603664Y-66363130D01*
X165603664Y-66363130D02*
X165796045Y-66170749D01*
X165796045Y-66170749D02*
X166180807Y-65978368D01*
X166180807Y-65978368D02*
X167142712Y-65978368D01*
X167142712Y-65978368D02*
X167527474Y-66170749D01*
X167527474Y-66170749D02*
X167719855Y-66363130D01*
X167719855Y-66363130D02*
X167912236Y-66747892D01*
X167912236Y-66747892D02*
X167912236Y-67709797D01*
X167912236Y-67709797D02*
X167719855Y-68094559D01*
X167719855Y-68094559D02*
X167527474Y-68286940D01*
X167527474Y-68286940D02*
X167142712Y-68479320D01*
X167142712Y-68479320D02*
X166180807Y-68479320D01*
X166180807Y-68479320D02*
X165796045Y-68286940D01*
X165796045Y-68286940D02*
X165603664Y-68094559D01*
X169066521Y-64439320D02*
X170413188Y-68479320D01*
X170413188Y-68479320D02*
X171759855Y-64439320D01*
X134275569Y-118286940D02*
X133890807Y-118479320D01*
X133890807Y-118479320D02*
X133121283Y-118479320D01*
X133121283Y-118479320D02*
X132736521Y-118286940D01*
X132736521Y-118286940D02*
X132544140Y-118094559D01*
X132544140Y-118094559D02*
X132351759Y-117709797D01*
X132351759Y-117709797D02*
X132351759Y-116555511D01*
X132351759Y-116555511D02*
X132544140Y-116170749D01*
X132544140Y-116170749D02*
X132736521Y-115978368D01*
X132736521Y-115978368D02*
X133121283Y-115785987D01*
X133121283Y-115785987D02*
X133890807Y-115785987D01*
X133890807Y-115785987D02*
X134275569Y-115978368D01*
X137738426Y-118479320D02*
X137738426Y-116363130D01*
X137738426Y-116363130D02*
X137546045Y-115978368D01*
X137546045Y-115978368D02*
X137161283Y-115785987D01*
X137161283Y-115785987D02*
X136391759Y-115785987D01*
X136391759Y-115785987D02*
X136006997Y-115978368D01*
X137738426Y-118286940D02*
X137353664Y-118479320D01*
X137353664Y-118479320D02*
X136391759Y-118479320D01*
X136391759Y-118479320D02*
X136006997Y-118286940D01*
X136006997Y-118286940D02*
X135814616Y-117902178D01*
X135814616Y-117902178D02*
X135814616Y-117517416D01*
X135814616Y-117517416D02*
X136006997Y-117132654D01*
X136006997Y-117132654D02*
X136391759Y-116940273D01*
X136391759Y-116940273D02*
X137353664Y-116940273D01*
X137353664Y-116940273D02*
X137738426Y-116747892D01*
X139662235Y-118479320D02*
X139662235Y-115785987D01*
X139662235Y-116555511D02*
X139854616Y-116170749D01*
X139854616Y-116170749D02*
X140046997Y-115978368D01*
X140046997Y-115978368D02*
X140431759Y-115785987D01*
X140431759Y-115785987D02*
X140816521Y-115785987D01*
X142163187Y-118479320D02*
X142163187Y-115785987D01*
X142163187Y-116555511D02*
X142355568Y-116170749D01*
X142355568Y-116170749D02*
X142547949Y-115978368D01*
X142547949Y-115978368D02*
X142932711Y-115785987D01*
X142932711Y-115785987D02*
X143317473Y-115785987D01*
X144279377Y-115785987D02*
X145241282Y-118479320D01*
X146203187Y-115785987D02*
X145241282Y-118479320D01*
X145241282Y-118479320D02*
X144856520Y-119441225D01*
X144856520Y-119441225D02*
X144664139Y-119633606D01*
X144664139Y-119633606D02*
X144279377Y-119825987D01*
D13*
X97830513Y-46205899D02*
X97830513Y-40125899D01*
X97830513Y-43021137D02*
X101304798Y-43021137D01*
X101304798Y-46205899D02*
X101304798Y-40125899D01*
X106805751Y-46205899D02*
X106805751Y-43021137D01*
X106805751Y-43021137D02*
X106516227Y-42442090D01*
X106516227Y-42442090D02*
X105937179Y-42152566D01*
X105937179Y-42152566D02*
X104779084Y-42152566D01*
X104779084Y-42152566D02*
X104200037Y-42442090D01*
X106805751Y-45916376D02*
X106226703Y-46205899D01*
X106226703Y-46205899D02*
X104779084Y-46205899D01*
X104779084Y-46205899D02*
X104200037Y-45916376D01*
X104200037Y-45916376D02*
X103910513Y-45337328D01*
X103910513Y-45337328D02*
X103910513Y-44758280D01*
X103910513Y-44758280D02*
X104200037Y-44179233D01*
X104200037Y-44179233D02*
X104779084Y-43889709D01*
X104779084Y-43889709D02*
X106226703Y-43889709D01*
X106226703Y-43889709D02*
X106805751Y-43600185D01*
X110569560Y-46205899D02*
X109990512Y-45916376D01*
X109990512Y-45916376D02*
X109700989Y-45337328D01*
X109700989Y-45337328D02*
X109700989Y-40125899D01*
X112017179Y-42152566D02*
X114333370Y-42152566D01*
X112885751Y-46205899D02*
X112885751Y-40994471D01*
X112885751Y-40994471D02*
X113175274Y-40415423D01*
X113175274Y-40415423D02*
X113754322Y-40125899D01*
X113754322Y-40125899D02*
X114333370Y-40125899D01*
X120702894Y-44468756D02*
X123598132Y-44468756D01*
X120123846Y-46205899D02*
X122150513Y-40125899D01*
X122150513Y-40125899D02*
X124177179Y-46205899D01*
X128809561Y-46205899D02*
X128809561Y-40125899D01*
X128809561Y-45916376D02*
X128230513Y-46205899D01*
X128230513Y-46205899D02*
X127072418Y-46205899D01*
X127072418Y-46205899D02*
X126493370Y-45916376D01*
X126493370Y-45916376D02*
X126203847Y-45626852D01*
X126203847Y-45626852D02*
X125914323Y-45047804D01*
X125914323Y-45047804D02*
X125914323Y-43310661D01*
X125914323Y-43310661D02*
X126203847Y-42731614D01*
X126203847Y-42731614D02*
X126493370Y-42442090D01*
X126493370Y-42442090D02*
X127072418Y-42152566D01*
X127072418Y-42152566D02*
X128230513Y-42152566D01*
X128230513Y-42152566D02*
X128809561Y-42442090D01*
X134310513Y-46205899D02*
X134310513Y-40125899D01*
X134310513Y-45916376D02*
X133731465Y-46205899D01*
X133731465Y-46205899D02*
X132573370Y-46205899D01*
X132573370Y-46205899D02*
X131994322Y-45916376D01*
X131994322Y-45916376D02*
X131704799Y-45626852D01*
X131704799Y-45626852D02*
X131415275Y-45047804D01*
X131415275Y-45047804D02*
X131415275Y-43310661D01*
X131415275Y-43310661D02*
X131704799Y-42731614D01*
X131704799Y-42731614D02*
X131994322Y-42442090D01*
X131994322Y-42442090D02*
X132573370Y-42152566D01*
X132573370Y-42152566D02*
X133731465Y-42152566D01*
X133731465Y-42152566D02*
X134310513Y-42442090D01*
X139521941Y-45916376D02*
X138942893Y-46205899D01*
X138942893Y-46205899D02*
X137784798Y-46205899D01*
X137784798Y-46205899D02*
X137205751Y-45916376D01*
X137205751Y-45916376D02*
X136916227Y-45337328D01*
X136916227Y-45337328D02*
X136916227Y-43021137D01*
X136916227Y-43021137D02*
X137205751Y-42442090D01*
X137205751Y-42442090D02*
X137784798Y-42152566D01*
X137784798Y-42152566D02*
X138942893Y-42152566D01*
X138942893Y-42152566D02*
X139521941Y-42442090D01*
X139521941Y-42442090D02*
X139811465Y-43021137D01*
X139811465Y-43021137D02*
X139811465Y-43600185D01*
X139811465Y-43600185D02*
X136916227Y-44179233D01*
X142417180Y-46205899D02*
X142417180Y-42152566D01*
X142417180Y-43310661D02*
X142706703Y-42731614D01*
X142706703Y-42731614D02*
X142996227Y-42442090D01*
X142996227Y-42442090D02*
X143575275Y-42152566D01*
X143575275Y-42152566D02*
X144154322Y-42152566D01*
D11*
X84390807Y-89613130D02*
X84967950Y-89805511D01*
X84967950Y-89805511D02*
X85160331Y-89997892D01*
X85160331Y-89997892D02*
X85352712Y-90382654D01*
X85352712Y-90382654D02*
X85352712Y-90959797D01*
X85352712Y-90959797D02*
X85160331Y-91344559D01*
X85160331Y-91344559D02*
X84967950Y-91536940D01*
X84967950Y-91536940D02*
X84583188Y-91729320D01*
X84583188Y-91729320D02*
X83044140Y-91729320D01*
X83044140Y-91729320D02*
X83044140Y-87689320D01*
X83044140Y-87689320D02*
X84390807Y-87689320D01*
X84390807Y-87689320D02*
X84775569Y-87881701D01*
X84775569Y-87881701D02*
X84967950Y-88074082D01*
X84967950Y-88074082D02*
X85160331Y-88458844D01*
X85160331Y-88458844D02*
X85160331Y-88843606D01*
X85160331Y-88843606D02*
X84967950Y-89228368D01*
X84967950Y-89228368D02*
X84775569Y-89420749D01*
X84775569Y-89420749D02*
X84390807Y-89613130D01*
X84390807Y-89613130D02*
X83044140Y-89613130D01*
X191852712Y-92344559D02*
X191660331Y-92536940D01*
X191660331Y-92536940D02*
X191083188Y-92729320D01*
X191083188Y-92729320D02*
X190698426Y-92729320D01*
X190698426Y-92729320D02*
X190121283Y-92536940D01*
X190121283Y-92536940D02*
X189736521Y-92152178D01*
X189736521Y-92152178D02*
X189544140Y-91767416D01*
X189544140Y-91767416D02*
X189351759Y-90997892D01*
X189351759Y-90997892D02*
X189351759Y-90420749D01*
X189351759Y-90420749D02*
X189544140Y-89651225D01*
X189544140Y-89651225D02*
X189736521Y-89266463D01*
X189736521Y-89266463D02*
X190121283Y-88881701D01*
X190121283Y-88881701D02*
X190698426Y-88689320D01*
X190698426Y-88689320D02*
X191083188Y-88689320D01*
X191083188Y-88689320D02*
X191660331Y-88881701D01*
X191660331Y-88881701D02*
X191852712Y-89074082D01*
X193584140Y-92729320D02*
X193584140Y-90035987D01*
X193584140Y-88689320D02*
X193391759Y-88881701D01*
X193391759Y-88881701D02*
X193584140Y-89074082D01*
X193584140Y-89074082D02*
X193776521Y-88881701D01*
X193776521Y-88881701D02*
X193584140Y-88689320D01*
X193584140Y-88689320D02*
X193584140Y-89074082D01*
X195507950Y-90035987D02*
X195507950Y-92729320D01*
X195507950Y-90420749D02*
X195700331Y-90228368D01*
X195700331Y-90228368D02*
X196085093Y-90035987D01*
X196085093Y-90035987D02*
X196662236Y-90035987D01*
X196662236Y-90035987D02*
X197046998Y-90228368D01*
X197046998Y-90228368D02*
X197239379Y-90613130D01*
X197239379Y-90613130D02*
X197239379Y-92729320D01*
X133160331Y-64131701D02*
X132775569Y-63939320D01*
X132775569Y-63939320D02*
X132198426Y-63939320D01*
X132198426Y-63939320D02*
X131621283Y-64131701D01*
X131621283Y-64131701D02*
X131236521Y-64516463D01*
X131236521Y-64516463D02*
X131044140Y-64901225D01*
X131044140Y-64901225D02*
X130851759Y-65670749D01*
X130851759Y-65670749D02*
X130851759Y-66247892D01*
X130851759Y-66247892D02*
X131044140Y-67017416D01*
X131044140Y-67017416D02*
X131236521Y-67402178D01*
X131236521Y-67402178D02*
X131621283Y-67786940D01*
X131621283Y-67786940D02*
X132198426Y-67979320D01*
X132198426Y-67979320D02*
X132583188Y-67979320D01*
X132583188Y-67979320D02*
X133160331Y-67786940D01*
X133160331Y-67786940D02*
X133352712Y-67594559D01*
X133352712Y-67594559D02*
X133352712Y-66247892D01*
X133352712Y-66247892D02*
X132583188Y-66247892D01*
X135084140Y-65285987D02*
X135084140Y-67979320D01*
X135084140Y-65670749D02*
X135276521Y-65478368D01*
X135276521Y-65478368D02*
X135661283Y-65285987D01*
X135661283Y-65285987D02*
X136238426Y-65285987D01*
X136238426Y-65285987D02*
X136623188Y-65478368D01*
X136623188Y-65478368D02*
X136815569Y-65863130D01*
X136815569Y-65863130D02*
X136815569Y-67979320D01*
X140470807Y-67979320D02*
X140470807Y-63939320D01*
X140470807Y-67786940D02*
X140086045Y-67979320D01*
X140086045Y-67979320D02*
X139316521Y-67979320D01*
X139316521Y-67979320D02*
X138931759Y-67786940D01*
X138931759Y-67786940D02*
X138739378Y-67594559D01*
X138739378Y-67594559D02*
X138546997Y-67209797D01*
X138546997Y-67209797D02*
X138546997Y-66055511D01*
X138546997Y-66055511D02*
X138739378Y-65670749D01*
X138739378Y-65670749D02*
X138931759Y-65478368D01*
X138931759Y-65478368D02*
X139316521Y-65285987D01*
X139316521Y-65285987D02*
X140086045Y-65285987D01*
X140086045Y-65285987D02*
X140470807Y-65478368D01*
D13*
X187357179Y-42771137D02*
X185330513Y-42771137D01*
X185330513Y-45955899D02*
X185330513Y-39875899D01*
X185330513Y-39875899D02*
X188225751Y-39875899D01*
X193147656Y-41902566D02*
X193147656Y-45955899D01*
X190541942Y-41902566D02*
X190541942Y-45087328D01*
X190541942Y-45087328D02*
X190831465Y-45666376D01*
X190831465Y-45666376D02*
X191410513Y-45955899D01*
X191410513Y-45955899D02*
X192279084Y-45955899D01*
X192279084Y-45955899D02*
X192858132Y-45666376D01*
X192858132Y-45666376D02*
X193147656Y-45376852D01*
X196911465Y-45955899D02*
X196332417Y-45666376D01*
X196332417Y-45666376D02*
X196042894Y-45087328D01*
X196042894Y-45087328D02*
X196042894Y-39875899D01*
X200096227Y-45955899D02*
X199517179Y-45666376D01*
X199517179Y-45666376D02*
X199227656Y-45087328D01*
X199227656Y-45087328D02*
X199227656Y-39875899D01*
X206755275Y-44218756D02*
X209650513Y-44218756D01*
X206176227Y-45955899D02*
X208202894Y-39875899D01*
X208202894Y-39875899D02*
X210229560Y-45955899D01*
X214861942Y-45955899D02*
X214861942Y-39875899D01*
X214861942Y-45666376D02*
X214282894Y-45955899D01*
X214282894Y-45955899D02*
X213124799Y-45955899D01*
X213124799Y-45955899D02*
X212545751Y-45666376D01*
X212545751Y-45666376D02*
X212256228Y-45376852D01*
X212256228Y-45376852D02*
X211966704Y-44797804D01*
X211966704Y-44797804D02*
X211966704Y-43060661D01*
X211966704Y-43060661D02*
X212256228Y-42481614D01*
X212256228Y-42481614D02*
X212545751Y-42192090D01*
X212545751Y-42192090D02*
X213124799Y-41902566D01*
X213124799Y-41902566D02*
X214282894Y-41902566D01*
X214282894Y-41902566D02*
X214861942Y-42192090D01*
X220362894Y-45955899D02*
X220362894Y-39875899D01*
X220362894Y-45666376D02*
X219783846Y-45955899D01*
X219783846Y-45955899D02*
X218625751Y-45955899D01*
X218625751Y-45955899D02*
X218046703Y-45666376D01*
X218046703Y-45666376D02*
X217757180Y-45376852D01*
X217757180Y-45376852D02*
X217467656Y-44797804D01*
X217467656Y-44797804D02*
X217467656Y-43060661D01*
X217467656Y-43060661D02*
X217757180Y-42481614D01*
X217757180Y-42481614D02*
X218046703Y-42192090D01*
X218046703Y-42192090D02*
X218625751Y-41902566D01*
X218625751Y-41902566D02*
X219783846Y-41902566D01*
X219783846Y-41902566D02*
X220362894Y-42192090D01*
X225574322Y-45666376D02*
X224995274Y-45955899D01*
X224995274Y-45955899D02*
X223837179Y-45955899D01*
X223837179Y-45955899D02*
X223258132Y-45666376D01*
X223258132Y-45666376D02*
X222968608Y-45087328D01*
X222968608Y-45087328D02*
X222968608Y-42771137D01*
X222968608Y-42771137D02*
X223258132Y-42192090D01*
X223258132Y-42192090D02*
X223837179Y-41902566D01*
X223837179Y-41902566D02*
X224995274Y-41902566D01*
X224995274Y-41902566D02*
X225574322Y-42192090D01*
X225574322Y-42192090D02*
X225863846Y-42771137D01*
X225863846Y-42771137D02*
X225863846Y-43350185D01*
X225863846Y-43350185D02*
X222968608Y-43929233D01*
X228469561Y-45955899D02*
X228469561Y-41902566D01*
X228469561Y-43060661D02*
X228759084Y-42481614D01*
X228759084Y-42481614D02*
X229048608Y-42192090D01*
X229048608Y-42192090D02*
X229627656Y-41902566D01*
X229627656Y-41902566D02*
X230206703Y-41902566D01*
M02*
