%TF.GenerationSoftware,KiCad,Pcbnew,9.0.5*%
%TF.CreationDate,2026-05-30T11:00:58+05:30*%
%TF.ProjectId,full_Adder_csmss,66756c6c-5f41-4646-9465-725f63736d73,rev?*%
%TF.SameCoordinates,Original*%
%TF.FileFunction,Soldermask,Bot*%
%TF.FilePolarity,Negative*%
%FSLAX46Y46*%
G04 Gerber Fmt 4.6, Leading zero omitted, Abs format (unit mm)*
G04 Created by KiCad (PCBNEW 9.0.5) date 2026-05-30 11:00:58*
%MOMM*%
%LPD*%
G01*
G04 APERTURE LIST*
G04 Aperture macros list*
%AMRoundRect*
0 Rectangle with rounded corners*
0 $1 Rounding radius*
0 $2 $3 $4 $5 $6 $7 $8 $9 X,Y pos of 4 corners*
0 Add a 4 corners polygon primitive as box body*
4,1,4,$2,$3,$4,$5,$6,$7,$8,$9,$2,$3,0*
0 Add four circle primitives for the rounded corners*
1,1,$1+$1,$2,$3*
1,1,$1+$1,$4,$5*
1,1,$1+$1,$6,$7*
1,1,$1+$1,$8,$9*
0 Add four rect primitives between the rounded corners*
20,1,$1+$1,$2,$3,$4,$5,0*
20,1,$1+$1,$4,$5,$6,$7,0*
20,1,$1+$1,$6,$7,$8,$9,0*
20,1,$1+$1,$8,$9,$2,$3,0*%
G04 Aperture macros list end*
%ADD10C,8.000000*%
%ADD11RoundRect,0.250000X0.550000X-0.550000X0.550000X0.550000X-0.550000X0.550000X-0.550000X-0.550000X0*%
%ADD12C,1.600000*%
%ADD13RoundRect,0.250000X0.550000X0.550000X-0.550000X0.550000X-0.550000X-0.550000X0.550000X-0.550000X0*%
G04 APERTURE END LIST*
D10*
%TO.C,J9*%
X94010000Y-89715000D03*
%TD*%
%TO.C,J10*%
X125470000Y-89635000D03*
%TD*%
%TO.C,J8*%
X94010000Y-118465000D03*
%TD*%
%TO.C,J1*%
X183135000Y-57535000D03*
%TD*%
%TO.C,J11*%
X125010000Y-117965000D03*
%TD*%
%TO.C,J6*%
X164960000Y-58830000D03*
%TD*%
D11*
%TO.C,U3*%
X221420000Y-115135000D03*
D12*
X218880000Y-115135000D03*
X216340000Y-115135000D03*
X213800000Y-115135000D03*
X211260000Y-115135000D03*
X208720000Y-115135000D03*
X206180000Y-115135000D03*
X206180000Y-107515000D03*
X208720000Y-107515000D03*
X211260000Y-107515000D03*
X213800000Y-107515000D03*
X216340000Y-107515000D03*
X218880000Y-107515000D03*
X221420000Y-107515000D03*
%TD*%
D11*
%TO.C,U2*%
X217410000Y-75870000D03*
D12*
X214870000Y-75870000D03*
X212330000Y-75870000D03*
X209790000Y-75870000D03*
X207250000Y-75870000D03*
X204710000Y-75870000D03*
X202170000Y-75870000D03*
X202170000Y-68250000D03*
X204710000Y-68250000D03*
X207250000Y-68250000D03*
X209790000Y-68250000D03*
X212330000Y-68250000D03*
X214870000Y-68250000D03*
X217410000Y-68250000D03*
%TD*%
D10*
%TO.C,J4*%
X183000000Y-127000000D03*
%TD*%
D12*
%TO.C,C1*%
X172500000Y-53000000D03*
X175000000Y-53000000D03*
%TD*%
D13*
%TO.C,U1*%
X165365000Y-71960000D03*
D12*
X165365000Y-74500000D03*
X165365000Y-77040000D03*
X165365000Y-79580000D03*
X165365000Y-82120000D03*
X165365000Y-84660000D03*
X165365000Y-87200000D03*
X157745000Y-87200000D03*
X157745000Y-84660000D03*
X157745000Y-82120000D03*
X157745000Y-79580000D03*
X157745000Y-77040000D03*
X157745000Y-74500000D03*
X157745000Y-71960000D03*
%TD*%
D10*
%TO.C,J7*%
X140500000Y-58750000D03*
%TD*%
%TO.C,J2*%
X182635000Y-73365000D03*
%TD*%
%TO.C,J5*%
X182750000Y-108000000D03*
%TD*%
%TO.C,J3*%
X182305000Y-91825000D03*
%TD*%
M02*
