%TF.GenerationSoftware,KiCad,Pcbnew,9.0.5*%
%TF.CreationDate,2026-05-30T11:00:58+05:30*%
%TF.ProjectId,full_Adder_csmss,66756c6c-5f41-4646-9465-725f63736d73,rev?*%
%TF.SameCoordinates,Original*%
%TF.FileFunction,AssemblyDrawing,Top*%
%FSLAX46Y46*%
G04 Gerber Fmt 4.6, Leading zero omitted, Abs format (unit mm)*
G04 Created by KiCad (PCBNEW 9.0.5) date 2026-05-30 11:00:58*
%MOMM*%
%LPD*%
G01*
G04 APERTURE LIST*
%ADD10C,0.150000*%
G04 APERTURE END LIST*
D10*
X94291428Y-90566009D02*
X94434285Y-90613628D01*
X94434285Y-90613628D02*
X94481904Y-90661247D01*
X94481904Y-90661247D02*
X94529523Y-90756485D01*
X94529523Y-90756485D02*
X94529523Y-90899342D01*
X94529523Y-90899342D02*
X94481904Y-90994580D01*
X94481904Y-90994580D02*
X94434285Y-91042200D01*
X94434285Y-91042200D02*
X94339047Y-91089819D01*
X94339047Y-91089819D02*
X93958095Y-91089819D01*
X93958095Y-91089819D02*
X93958095Y-90089819D01*
X93958095Y-90089819D02*
X94291428Y-90089819D01*
X94291428Y-90089819D02*
X94386666Y-90137438D01*
X94386666Y-90137438D02*
X94434285Y-90185057D01*
X94434285Y-90185057D02*
X94481904Y-90280295D01*
X94481904Y-90280295D02*
X94481904Y-90375533D01*
X94481904Y-90375533D02*
X94434285Y-90470771D01*
X94434285Y-90470771D02*
X94386666Y-90518390D01*
X94386666Y-90518390D02*
X94291428Y-90566009D01*
X94291428Y-90566009D02*
X93958095Y-90566009D01*
X93886666Y-91589819D02*
X93886666Y-92304104D01*
X93886666Y-92304104D02*
X93839047Y-92446961D01*
X93839047Y-92446961D02*
X93743809Y-92542200D01*
X93743809Y-92542200D02*
X93600952Y-92589819D01*
X93600952Y-92589819D02*
X93505714Y-92589819D01*
X94410476Y-92589819D02*
X94600952Y-92589819D01*
X94600952Y-92589819D02*
X94696190Y-92542200D01*
X94696190Y-92542200D02*
X94743809Y-92494580D01*
X94743809Y-92494580D02*
X94839047Y-92351723D01*
X94839047Y-92351723D02*
X94886666Y-92161247D01*
X94886666Y-92161247D02*
X94886666Y-91780295D01*
X94886666Y-91780295D02*
X94839047Y-91685057D01*
X94839047Y-91685057D02*
X94791428Y-91637438D01*
X94791428Y-91637438D02*
X94696190Y-91589819D01*
X94696190Y-91589819D02*
X94505714Y-91589819D01*
X94505714Y-91589819D02*
X94410476Y-91637438D01*
X94410476Y-91637438D02*
X94362857Y-91685057D01*
X94362857Y-91685057D02*
X94315238Y-91780295D01*
X94315238Y-91780295D02*
X94315238Y-92018390D01*
X94315238Y-92018390D02*
X94362857Y-92113628D01*
X94362857Y-92113628D02*
X94410476Y-92161247D01*
X94410476Y-92161247D02*
X94505714Y-92208866D01*
X94505714Y-92208866D02*
X94696190Y-92208866D01*
X94696190Y-92208866D02*
X94791428Y-92161247D01*
X94791428Y-92161247D02*
X94839047Y-92113628D01*
X94839047Y-92113628D02*
X94886666Y-92018390D01*
X124346667Y-90962200D02*
X124441905Y-91009819D01*
X124441905Y-91009819D02*
X124632381Y-91009819D01*
X124632381Y-91009819D02*
X124727619Y-90962200D01*
X124727619Y-90962200D02*
X124775238Y-90866961D01*
X124775238Y-90866961D02*
X124775238Y-90819342D01*
X124775238Y-90819342D02*
X124727619Y-90724104D01*
X124727619Y-90724104D02*
X124632381Y-90676485D01*
X124632381Y-90676485D02*
X124489524Y-90676485D01*
X124489524Y-90676485D02*
X124394286Y-90628866D01*
X124394286Y-90628866D02*
X124346667Y-90533628D01*
X124346667Y-90533628D02*
X124346667Y-90486009D01*
X124346667Y-90486009D02*
X124394286Y-90390771D01*
X124394286Y-90390771D02*
X124489524Y-90343152D01*
X124489524Y-90343152D02*
X124632381Y-90343152D01*
X124632381Y-90343152D02*
X124727619Y-90390771D01*
X125632381Y-90343152D02*
X125632381Y-91009819D01*
X125203810Y-90343152D02*
X125203810Y-90866961D01*
X125203810Y-90866961D02*
X125251429Y-90962200D01*
X125251429Y-90962200D02*
X125346667Y-91009819D01*
X125346667Y-91009819D02*
X125489524Y-91009819D01*
X125489524Y-91009819D02*
X125584762Y-90962200D01*
X125584762Y-90962200D02*
X125632381Y-90914580D01*
X126108572Y-91009819D02*
X126108572Y-90343152D01*
X126108572Y-90438390D02*
X126156191Y-90390771D01*
X126156191Y-90390771D02*
X126251429Y-90343152D01*
X126251429Y-90343152D02*
X126394286Y-90343152D01*
X126394286Y-90343152D02*
X126489524Y-90390771D01*
X126489524Y-90390771D02*
X126537143Y-90486009D01*
X126537143Y-90486009D02*
X126537143Y-91009819D01*
X126537143Y-90486009D02*
X126584762Y-90390771D01*
X126584762Y-90390771D02*
X126680000Y-90343152D01*
X126680000Y-90343152D02*
X126822857Y-90343152D01*
X126822857Y-90343152D02*
X126918096Y-90390771D01*
X126918096Y-90390771D02*
X126965715Y-90486009D01*
X126965715Y-90486009D02*
X126965715Y-91009819D01*
X124870476Y-91509819D02*
X124870476Y-92224104D01*
X124870476Y-92224104D02*
X124822857Y-92366961D01*
X124822857Y-92366961D02*
X124727619Y-92462200D01*
X124727619Y-92462200D02*
X124584762Y-92509819D01*
X124584762Y-92509819D02*
X124489524Y-92509819D01*
X125870476Y-92509819D02*
X125299048Y-92509819D01*
X125584762Y-92509819D02*
X125584762Y-91509819D01*
X125584762Y-91509819D02*
X125489524Y-91652676D01*
X125489524Y-91652676D02*
X125394286Y-91747914D01*
X125394286Y-91747914D02*
X125299048Y-91795533D01*
X126489524Y-91509819D02*
X126584762Y-91509819D01*
X126584762Y-91509819D02*
X126680000Y-91557438D01*
X126680000Y-91557438D02*
X126727619Y-91605057D01*
X126727619Y-91605057D02*
X126775238Y-91700295D01*
X126775238Y-91700295D02*
X126822857Y-91890771D01*
X126822857Y-91890771D02*
X126822857Y-92128866D01*
X126822857Y-92128866D02*
X126775238Y-92319342D01*
X126775238Y-92319342D02*
X126727619Y-92414580D01*
X126727619Y-92414580D02*
X126680000Y-92462200D01*
X126680000Y-92462200D02*
X126584762Y-92509819D01*
X126584762Y-92509819D02*
X126489524Y-92509819D01*
X126489524Y-92509819D02*
X126394286Y-92462200D01*
X126394286Y-92462200D02*
X126346667Y-92414580D01*
X126346667Y-92414580D02*
X126299048Y-92319342D01*
X126299048Y-92319342D02*
X126251429Y-92128866D01*
X126251429Y-92128866D02*
X126251429Y-91890771D01*
X126251429Y-91890771D02*
X126299048Y-91700295D01*
X126299048Y-91700295D02*
X126346667Y-91605057D01*
X126346667Y-91605057D02*
X126394286Y-91557438D01*
X126394286Y-91557438D02*
X126489524Y-91509819D01*
X93981905Y-119554104D02*
X94458095Y-119554104D01*
X93886667Y-119839819D02*
X94220000Y-118839819D01*
X94220000Y-118839819D02*
X94553333Y-119839819D01*
X93886666Y-120339819D02*
X93886666Y-121054104D01*
X93886666Y-121054104D02*
X93839047Y-121196961D01*
X93839047Y-121196961D02*
X93743809Y-121292200D01*
X93743809Y-121292200D02*
X93600952Y-121339819D01*
X93600952Y-121339819D02*
X93505714Y-121339819D01*
X94505714Y-120768390D02*
X94410476Y-120720771D01*
X94410476Y-120720771D02*
X94362857Y-120673152D01*
X94362857Y-120673152D02*
X94315238Y-120577914D01*
X94315238Y-120577914D02*
X94315238Y-120530295D01*
X94315238Y-120530295D02*
X94362857Y-120435057D01*
X94362857Y-120435057D02*
X94410476Y-120387438D01*
X94410476Y-120387438D02*
X94505714Y-120339819D01*
X94505714Y-120339819D02*
X94696190Y-120339819D01*
X94696190Y-120339819D02*
X94791428Y-120387438D01*
X94791428Y-120387438D02*
X94839047Y-120435057D01*
X94839047Y-120435057D02*
X94886666Y-120530295D01*
X94886666Y-120530295D02*
X94886666Y-120577914D01*
X94886666Y-120577914D02*
X94839047Y-120673152D01*
X94839047Y-120673152D02*
X94791428Y-120720771D01*
X94791428Y-120720771D02*
X94696190Y-120768390D01*
X94696190Y-120768390D02*
X94505714Y-120768390D01*
X94505714Y-120768390D02*
X94410476Y-120816009D01*
X94410476Y-120816009D02*
X94362857Y-120863628D01*
X94362857Y-120863628D02*
X94315238Y-120958866D01*
X94315238Y-120958866D02*
X94315238Y-121149342D01*
X94315238Y-121149342D02*
X94362857Y-121244580D01*
X94362857Y-121244580D02*
X94410476Y-121292200D01*
X94410476Y-121292200D02*
X94505714Y-121339819D01*
X94505714Y-121339819D02*
X94696190Y-121339819D01*
X94696190Y-121339819D02*
X94791428Y-121292200D01*
X94791428Y-121292200D02*
X94839047Y-121244580D01*
X94839047Y-121244580D02*
X94886666Y-121149342D01*
X94886666Y-121149342D02*
X94886666Y-120958866D01*
X94886666Y-120958866D02*
X94839047Y-120863628D01*
X94839047Y-120863628D02*
X94791428Y-120816009D01*
X94791428Y-120816009D02*
X94696190Y-120768390D01*
X184224104Y-57563094D02*
X184224104Y-57086904D01*
X184509819Y-57658332D02*
X183509819Y-57324999D01*
X183509819Y-57324999D02*
X184509819Y-56991666D01*
X185009819Y-57658333D02*
X185724104Y-57658333D01*
X185724104Y-57658333D02*
X185866961Y-57705952D01*
X185866961Y-57705952D02*
X185962200Y-57801190D01*
X185962200Y-57801190D02*
X186009819Y-57944047D01*
X186009819Y-57944047D02*
X186009819Y-58039285D01*
X186009819Y-56658333D02*
X186009819Y-57229761D01*
X186009819Y-56944047D02*
X185009819Y-56944047D01*
X185009819Y-56944047D02*
X185152676Y-57039285D01*
X185152676Y-57039285D02*
X185247914Y-57134523D01*
X185247914Y-57134523D02*
X185295533Y-57229761D01*
X124339047Y-119244580D02*
X124291428Y-119292200D01*
X124291428Y-119292200D02*
X124148571Y-119339819D01*
X124148571Y-119339819D02*
X124053333Y-119339819D01*
X124053333Y-119339819D02*
X123910476Y-119292200D01*
X123910476Y-119292200D02*
X123815238Y-119196961D01*
X123815238Y-119196961D02*
X123767619Y-119101723D01*
X123767619Y-119101723D02*
X123720000Y-118911247D01*
X123720000Y-118911247D02*
X123720000Y-118768390D01*
X123720000Y-118768390D02*
X123767619Y-118577914D01*
X123767619Y-118577914D02*
X123815238Y-118482676D01*
X123815238Y-118482676D02*
X123910476Y-118387438D01*
X123910476Y-118387438D02*
X124053333Y-118339819D01*
X124053333Y-118339819D02*
X124148571Y-118339819D01*
X124148571Y-118339819D02*
X124291428Y-118387438D01*
X124291428Y-118387438D02*
X124339047Y-118435057D01*
X124910476Y-119339819D02*
X124815238Y-119292200D01*
X124815238Y-119292200D02*
X124767619Y-119244580D01*
X124767619Y-119244580D02*
X124720000Y-119149342D01*
X124720000Y-119149342D02*
X124720000Y-118863628D01*
X124720000Y-118863628D02*
X124767619Y-118768390D01*
X124767619Y-118768390D02*
X124815238Y-118720771D01*
X124815238Y-118720771D02*
X124910476Y-118673152D01*
X124910476Y-118673152D02*
X125053333Y-118673152D01*
X125053333Y-118673152D02*
X125148571Y-118720771D01*
X125148571Y-118720771D02*
X125196190Y-118768390D01*
X125196190Y-118768390D02*
X125243809Y-118863628D01*
X125243809Y-118863628D02*
X125243809Y-119149342D01*
X125243809Y-119149342D02*
X125196190Y-119244580D01*
X125196190Y-119244580D02*
X125148571Y-119292200D01*
X125148571Y-119292200D02*
X125053333Y-119339819D01*
X125053333Y-119339819D02*
X124910476Y-119339819D01*
X126100952Y-118673152D02*
X126100952Y-119339819D01*
X125672381Y-118673152D02*
X125672381Y-119196961D01*
X125672381Y-119196961D02*
X125720000Y-119292200D01*
X125720000Y-119292200D02*
X125815238Y-119339819D01*
X125815238Y-119339819D02*
X125958095Y-119339819D01*
X125958095Y-119339819D02*
X126053333Y-119292200D01*
X126053333Y-119292200D02*
X126100952Y-119244580D01*
X126434286Y-118673152D02*
X126815238Y-118673152D01*
X126577143Y-118339819D02*
X126577143Y-119196961D01*
X126577143Y-119196961D02*
X126624762Y-119292200D01*
X126624762Y-119292200D02*
X126720000Y-119339819D01*
X126720000Y-119339819D02*
X126815238Y-119339819D01*
X124410476Y-119839819D02*
X124410476Y-120554104D01*
X124410476Y-120554104D02*
X124362857Y-120696961D01*
X124362857Y-120696961D02*
X124267619Y-120792200D01*
X124267619Y-120792200D02*
X124124762Y-120839819D01*
X124124762Y-120839819D02*
X124029524Y-120839819D01*
X125410476Y-120839819D02*
X124839048Y-120839819D01*
X125124762Y-120839819D02*
X125124762Y-119839819D01*
X125124762Y-119839819D02*
X125029524Y-119982676D01*
X125029524Y-119982676D02*
X124934286Y-120077914D01*
X124934286Y-120077914D02*
X124839048Y-120125533D01*
X126362857Y-120839819D02*
X125791429Y-120839819D01*
X126077143Y-120839819D02*
X126077143Y-119839819D01*
X126077143Y-119839819D02*
X125981905Y-119982676D01*
X125981905Y-119982676D02*
X125886667Y-120077914D01*
X125886667Y-120077914D02*
X125791429Y-120125533D01*
M02*
